<?xml version="1.0" encoding="utf-8"?>
<!-- Generator: Adobe Illustrator 26.0.3, SVG Export Plug-In . SVG Version: 6.00 Build 0)  -->
<svg version="1.1" id="Layer_1" xmlns="http://www.w3.org/2000/svg" xmlns:xlink="http://www.w3.org/1999/xlink" x="0px" y="0px"
	 viewBox="0 0 312 48" style="enable-background:new 0 0 312 48;" xml:space="preserve">
<style type="text/css">
	.st0{fill:#C84B1F;}
	.st1{fill:#FF994E;}
	.st2{opacity:0.4;fill:none;stroke:#D22739;stroke-width:0.8504;stroke-miterlimit:10;enable-background:new    ;}
	.st3{fill:#BF4A44;}
	.st4{opacity:0.3;fill:#DB948E;enable-background:new    ;}
	.st5{fill:none;stroke:#561103;stroke-width:1.2159;stroke-miterlimit:10;}
	.st6{fill:#BD0B0A;}
	.st7{opacity:0.5;fill:#BD0B0A;enable-background:new    ;}
	.st8{fill:#A6390B;}
	.st9{fill:none;stroke:#A6390B;stroke-width:1.1667;stroke-miterlimit:10;}
	.st10{opacity:0.3;fill:none;stroke:#C84B1F;stroke-width:1.166;stroke-miterlimit:10;enable-background:new    ;}
	.st11{opacity:0.5;}
	.st12{fill:none;stroke:#BD0B0A;stroke-width:1.0073;stroke-miterlimit:10;}
	.st13{fill:#561103;}
	.st14{opacity:0.3;fill:#A6390B;enable-background:new    ;}
	.st15{opacity:0.3;fill:none;stroke:#DB948E;stroke-width:1.1156;stroke-miterlimit:10;enable-background:new    ;}
	.st16{opacity:0.3;fill:none;stroke:#DB948E;stroke-width:0.9562;stroke-miterlimit:10;enable-background:new    ;}
	.st17{fill:none;stroke:#BF4A44;stroke-width:1.05;stroke-miterlimit:10;}
	.st18{fill:#FFFFFF;}
	.st19{opacity:0.5;fill:none;stroke:#BD0B0A;stroke-miterlimit:10;enable-background:new    ;}
	.st20{opacity:0.5;fill:none;stroke:#BD0B0A;stroke-width:0.9583;stroke-miterlimit:10;enable-background:new    ;}
	.st21{fill:none;stroke:#FF994E;stroke-miterlimit:10;}
	.st22{fill:none;stroke:#FF994E;stroke-width:1.0073;stroke-miterlimit:10;}
</style>
<g>
	<rect x="0" y="0" class="st13" width="312" height="47.9"/>
	<rect y="0" class="st14" width="6.8" height="47.8"/>
	<rect x="305.2" y="0" class="st14" width="6.8" height="47.9"/>
	<path class="st15" d="M20.4,33.2V14.7c3.5,0,6.3-2.8,6.3-6.3h30.7c0,3.5,2.8,6.3,6.3,6.3v18.5c-3.5,0-6.3,2.8-6.3,6.3H26.7
		C26.7,36,23.9,33.2,20.4,33.2z"/>
	<path class="st15" d="M69.9,33V14.8c3.6,0,6.5-2.9,6.5-6.5h157.9c0,3.6,2.9,6.5,6.5,6.5V33c-3.6,0-6.5,2.9-6.5,6.5H76.4
		C76.4,35.9,73.5,33,69.9,33z"/>
	<path class="st15" d="M247.1,33.2V14.7c3.5,0,6.3-2.8,6.3-6.3h30.7c0,3.5,2.8,6.3,6.3,6.3v18.5c-3.5,0-6.3,2.8-6.3,6.3h-30.7
		C253.5,36,250.6,33.2,247.1,33.2z"/>
	<line class="st16" x1="299.5" y1="0" x2="299.5" y2="48"/>
	<line class="st16" x1="12.4" y1="0" x2="12.4" y2="48"/>
</g>
<g>
	<path class="st18" d="M113.2,13.2H126v3.9h-8.8v4.7h7.6v3.9h-7.6v8.1h-4.1V13.2z"/>
	<path class="st18" d="M129.2,17.3c0-0.6,0.2-1,0.7-1.4c0.5-0.4,1-0.6,1.5-0.6s1,0.2,1.4,0.6c0.4,0.4,0.7,0.9,0.7,1.4
		c0,0.6-0.2,1-0.7,1.4s-0.9,0.5-1.4,0.5s-1-0.2-1.5-0.5C129.5,18.3,129.2,17.9,129.2,17.3z M129.3,21.6h3.9v12.2h-3.9V21.6z"/>
	<path class="st18" d="M147.7,32.8c-0.5,0.4-1.2,0.8-2,1c-0.8,0.3-1.6,0.4-2.4,0.4c-1.4,0-2.6-0.3-3.6-0.8c-1-0.5-1.8-1.2-2.4-2.2
		s-0.9-2.1-0.9-3.5c0-1.4,0.3-2.5,0.9-3.5c0.6-1,1.4-1.7,2.4-2.2c1-0.5,2-0.8,3.1-0.8s2.1,0.1,2.9,0.5c0.8,0.3,1.5,0.7,2.1,1.2
		l-1.9,2.5c-0.3-0.2-0.6-0.4-1.1-0.6s-1-0.3-1.6-0.3c-0.5,0-1,0.1-1.5,0.4c-0.5,0.3-0.8,0.7-1.1,1.1c-0.3,0.5-0.4,1.1-0.4,1.7
		c0,0.6,0.1,1.2,0.4,1.7s0.7,0.9,1.2,1.2c0.5,0.3,1.1,0.4,1.8,0.4c0.4,0,0.8-0.1,1.2-0.2c0.4-0.1,0.7-0.3,0.9-0.5L147.7,32.8z"/>
	<path class="st18" d="M151.8,16.2h3.9v5.3h3v3h-3v9.2h-3.9v-9.2h-1.9v-3h1.9V16.2z"/>
	<path class="st18" d="M161.6,17.3c0-0.6,0.2-1,0.7-1.4c0.5-0.4,1-0.6,1.5-0.6s1,0.2,1.4,0.6c0.4,0.4,0.7,0.9,0.7,1.4
		c0,0.6-0.2,1-0.7,1.4s-0.9,0.5-1.4,0.5s-1-0.2-1.5-0.5C161.9,18.3,161.6,17.9,161.6,17.3z M161.7,21.6h3.9v12.2h-3.9V21.6z"/>
	<path class="st18" d="M168.7,27.6c0-1.2,0.3-2.4,0.9-3.4s1.4-1.8,2.5-2.3c1.1-0.6,2.3-0.9,3.7-0.9c1.4,0,2.6,0.3,3.6,0.9
		c1,0.6,1.8,1.3,2.4,2.3c0.6,1,0.8,2.1,0.8,3.4s-0.3,2.4-0.8,3.4s-1.3,1.8-2.4,2.4c-1,0.6-2.3,0.9-3.7,0.9c-1.3,0-2.5-0.3-3.6-0.8
		s-1.9-1.3-2.5-2.3S168.7,29,168.7,27.6z M172.7,27.6c0,0.6,0.1,1.2,0.4,1.7c0.3,0.5,0.6,0.9,1.1,1.2c0.5,0.3,1,0.5,1.5,0.5
		c0.6,0,1.1-0.2,1.6-0.5s0.8-0.7,1-1.2c0.2-0.5,0.4-1.1,0.4-1.7c0-0.7-0.1-1.2-0.4-1.7c-0.2-0.5-0.6-0.9-1-1.2
		c-0.5-0.3-1-0.5-1.6-0.5c-0.6,0-1.1,0.2-1.5,0.5s-0.8,0.7-1.1,1.2C172.8,26.4,172.7,27,172.7,27.6z"/>
	<path class="st18" d="M189.2,21.6l0.3,2.2l-0.1-0.2c0.4-0.8,1-1.4,1.8-1.9c0.8-0.5,1.8-0.7,2.9-0.7c1.2,0,2.1,0.3,2.9,1
		c0.8,0.7,1.2,1.6,1.2,2.7v9.2h-3.9v-7.7c0-0.5-0.2-1-0.4-1.3s-0.7-0.5-1.4-0.5c-0.6,0-1.1,0.2-1.6,0.6s-0.8,0.9-1,1.6
		s-0.4,1.5-0.4,2.3v5h-3.9V21.6H189.2z"/>
</g>
</svg>
