<?xml version="1.0" encoding="utf-8"?>
<!-- Generator: Adobe Illustrator 26.3.1, SVG Export Plug-In . SVG Version: 6.00 Build 0)  -->
<svg version="1.1" id="Layer_1" xmlns="http://www.w3.org/2000/svg" xmlns:xlink="http://www.w3.org/1999/xlink" x="0px" y="0px"
	 viewBox="0 0 28 28" style="enable-background:new 0 0 28 28;" xml:space="preserve">
<style type="text/css">
	.st0{fill:#971B1E;}
</style>
<g>
	<g>
		<path class="st0" d="M27.5,25.5c0.3,0.3,0.4,0.6,0.4,1s-0.2,0.7-0.4,1c-0.3,0.3-0.6,0.4-1,0.4c-0.4,0-0.7-0.2-1-0.4L14,16
			L2.5,27.5c-0.3,0.3-0.6,0.4-1,0.4s-0.7-0.1-1-0.4c-0.3-0.3-0.4-0.6-0.4-1s0.1-0.7,0.4-1L12,14L0.5,2.5c-0.6-0.6-0.6-1.5,0-2
			c0.6-0.6,1.5-0.6,2,0L14,12L25.5,0.4c0.6-0.6,1.5-0.6,2,0c0.6,0.6,0.6,1.5,0,2L16,14L27.5,25.5z"/>
	</g>
</g>
</svg>
