<?xml version="1.0" encoding="utf-8"?>
<!-- Generator: Adobe Illustrator 26.3.1, SVG Export Plug-In . SVG Version: 6.00 Build 0)  -->
<svg version="1.1" id="Layer_1" xmlns="http://www.w3.org/2000/svg" xmlns:xlink="http://www.w3.org/1999/xlink" x="0px" y="0px"
	 viewBox="0 0 56.7 56.7" style="enable-background:new 0 0 56.7 56.7;" xml:space="preserve">
<style type="text/css">
	.st0{fill:#971B1E;}
	.st1{fill:none;stroke:#971B1E;stroke-width:3;stroke-linecap:round;stroke-miterlimit:10;}
</style>
<g>
	<path class="st0" d="M-22.6,2.6L-30,2.5c-0.4-2.8-1.5-5.4-3.6-7.6c-4.9-4.9-12.9-4.9-17.8,0s-4.9,12.9,0,17.8
		c4.9,4.9,12.9,4.9,17.8,0c2.1-2.1,3.3-4.9,3.6-7.7l7.4,0.1c0.3,0,0.7-0.1,0.9-0.4s0.4-0.6,0.4-0.9C-21.3,3.1-21.9,2.6-22.6,2.6z
		 M-49.6,10.9c-3.9-3.9-4-10.3-0.1-14.2s10.3-3.9,14.2,0.1c3.9,3.9,4,10.3,0.1,14.2S-45.7,14.9-49.6,10.9z"/>
</g>
<line class="st1" x1="5.1" y1="28.2" x2="51.7" y2="28.2"/>
<line class="st1" x1="5.1" y1="43.1" x2="51.7" y2="43.1"/>
<line class="st1" x1="5.1" y1="13.3" x2="51.7" y2="13.3"/>
</svg>
