<?xml version="1.0" encoding="utf-8"?>
<!-- Generator: Adobe Illustrator 26.2.1, SVG Export Plug-In . SVG Version: 6.00 Build 0)  -->
<svg version="1.1" id="Layer_1" xmlns="http://www.w3.org/2000/svg" xmlns:xlink="http://www.w3.org/1999/xlink" x="0px" y="0px"
	 viewBox="0 0 319 50" style="enable-background:new 0 0 319 50;" xml:space="preserve">
<style type="text/css">
	.st0{fill:#C84B1F;}
	.st1{fill:#FF994E;}
	.st2{opacity:0.4;fill:none;stroke:#D22739;stroke-width:0.8783;stroke-miterlimit:10;}
	.st3{fill:#BF4A44;}
	.st4{opacity:0.3;fill:#DB948E;}
	.st5{fill:none;stroke:#561103;stroke-width:1.1047;stroke-miterlimit:10;}
	.st6{fill:#BD0B0A;}
	.st7{opacity:0.5;fill:#BD0B0A;}
	.st8{fill:none;stroke:#BD0B0A;stroke-width:0.6343;stroke-miterlimit:10;}
	.st9{fill:#A6390B;}
	.st10{opacity:0.5;clip-path:url(#SVGID_00000087371671118979610230000002111981253188137919_);}
	.st11{fill:none;stroke:#FF994E;stroke-miterlimit:10;}
	.st12{opacity:0.5;clip-path:url(#SVGID_00000134949998199665231620000018076946161122398355_);}
	.st13{fill:none;stroke:#A6390B;stroke-miterlimit:10;}
	.st14{opacity:0.3;fill:none;stroke:#C84B1F;stroke-miterlimit:10;}
	.st15{opacity:0.5;}
	.st16{fill:none;stroke:#BD0B0A;stroke-width:1.0073;stroke-miterlimit:10;}
	.st17{fill:#561103;}
	.st18{opacity:0.3;fill:#A6390B;}
	.st19{opacity:0.3;fill:none;stroke:#DB948E;stroke-width:1.0593;stroke-miterlimit:10;}
	.st20{opacity:0.3;fill:none;stroke:#DB948E;stroke-width:0.9079;stroke-miterlimit:10;}
	.st21{fill:none;stroke:#BF4A44;stroke-width:1.0086;stroke-miterlimit:10;}
	.st22{fill:#FFFFFF;}
	.st23{opacity:0.5;fill:none;stroke:#BD0B0A;stroke-miterlimit:10;}
	.st24{fill:none;stroke:#FF994E;stroke-width:1.0073;stroke-miterlimit:10;}
</style>
<rect x="134.5" y="-134.5" transform="matrix(-1.836970e-16 1 -1 -1.836970e-16 184.5 -134.5)" class="st1" width="50" height="319"/>
<rect x="254.9" y="17.7" transform="matrix(-1.836970e-16 1 -1 -1.836970e-16 304.8985 -254.8985)" class="st7" width="50" height="14.6"/>
<rect x="275.4" y="17.7" transform="matrix(-1.836970e-16 1 -1 -1.836970e-16 325.3516 -275.3516)" class="st7" width="50" height="14.6"/>
<rect x="287.6" y="22.2" transform="matrix(-1.836970e-16 1 -1 -1.836970e-16 337.5531 -287.5531)" class="st0" width="50" height="5.5"/>
<rect x="-7.8" y="22.2" transform="matrix(-1.836970e-16 1 -1 -1.836970e-16 42.2069 7.7931)" class="st0" width="50" height="5.5"/>
<rect x="4.3" y="17.7" transform="matrix(-1.836970e-16 1 -1 -1.836970e-16 54.3046 -4.3046)" class="st7" width="50" height="14.6"/>
<rect x="24.8" y="17.7" transform="matrix(-1.836970e-16 1 -1 -1.836970e-16 74.7578 -24.7578)" class="st7" width="50" height="14.6"/>
<ellipse class="st0" cx="162.2" cy="24.8" rx="68.1" ry="17.8"/>
<path class="st11" d="M97.7,24.8c0-6.4,25.2-15.6,64.6-15.6c39.4,0,64.6,9.3,64.6,15.6s-25.2,15.6-64.6,15.6
	C122.8,40.4,97.7,31.2,97.7,24.8z"/>
<g>
	<path class="st22" d="M144.2,34.3l8.3-19.8h0.2l8.3,19.8H158l-6.2-15.8l1.8-1.2l-6.9,17H144.2z M149,27.1h7.1l0.8,2.2h-8.7
		L149,27.1z"/>
	<path class="st22" d="M166.1,23.4l0.2,3.2l-0.1-0.4c0.3-0.6,0.7-1.2,1.2-1.7c0.5-0.5,1.1-0.8,1.7-1.1s1.1-0.4,1.5-0.4l-0.1,2.5
		c-0.8-0.1-1.6,0.1-2.2,0.5c-0.6,0.4-1.1,0.9-1.5,1.5c-0.4,0.6-0.5,1.3-0.5,2v5h-2.5V23.4H166.1z"/>
	<path class="st22" d="M174.9,18.6h2.5v4.8h3v1.9h-3v8.9h-2.5v-8.9h-2v-1.9h2V18.6z"/>
</g>
</svg>
