<?xml version="1.0" encoding="utf-8"?>
<!-- Generator: Adobe Illustrator 26.2.1, SVG Export Plug-In . SVG Version: 6.00 Build 0)  -->
<svg version="1.1" id="Layer_1" xmlns="http://www.w3.org/2000/svg" xmlns:xlink="http://www.w3.org/1999/xlink" x="0px" y="0px"
	 viewBox="0 0 319 50" style="enable-background:new 0 0 319 50;" xml:space="preserve">
<style type="text/css">
	.st0{fill:#C84B1F;}
	.st1{fill:#FF994E;}
	.st2{opacity:0.4;fill:none;stroke:#D22739;stroke-width:0.8783;stroke-miterlimit:10;}
	.st3{fill:#BF4A44;}
	.st4{opacity:0.3;fill:#DB948E;}
	.st5{fill:none;stroke:#561103;stroke-width:1.1047;stroke-miterlimit:10;}
	.st6{fill:#BD0B0A;}
	.st7{opacity:0.5;fill:#BD0B0A;}
	.st8{fill:none;stroke:#BD0B0A;stroke-width:0.6343;stroke-miterlimit:10;}
	.st9{fill:#A6390B;}
	.st10{opacity:0.5;clip-path:url(#SVGID_00000059301088303323107760000001399014039342103710_);}
	.st11{fill:none;stroke:#FF994E;stroke-miterlimit:10;}
	.st12{opacity:0.5;clip-path:url(#SVGID_00000153707107771669072410000001695927566168305542_);}
	.st13{fill:none;stroke:#A6390B;stroke-miterlimit:10;}
	.st14{opacity:0.3;fill:none;stroke:#C84B1F;stroke-miterlimit:10;}
	.st15{opacity:0.5;}
	.st16{fill:none;stroke:#BD0B0A;stroke-width:1.0073;stroke-miterlimit:10;}
	.st17{fill:#561103;}
	.st18{opacity:0.3;fill:#A6390B;}
	.st19{opacity:0.3;fill:none;stroke:#DB948E;stroke-width:1.0593;stroke-miterlimit:10;}
	.st20{opacity:0.3;fill:none;stroke:#DB948E;stroke-width:0.9079;stroke-miterlimit:10;}
	.st21{fill:none;stroke:#BF4A44;stroke-width:1.0086;stroke-miterlimit:10;}
	.st22{fill:#FFFFFF;}
	.st23{opacity:0.5;fill:none;stroke:#BD0B0A;stroke-miterlimit:10;}
	.st24{fill:none;stroke:#FF994E;stroke-width:1.0073;stroke-miterlimit:10;}
</style>
<rect x="0" y="0" class="st1" width="319" height="49.8"/>
<g class="st15">
	<line class="st16" x1="15.3" y1="0" x2="15.3" y2="49.8"/>
	<line class="st16" x1="40" y1="3.8" x2="19" y2="3.8"/>
	<line class="st16" x1="40" y1="10.7" x2="19" y2="10.7"/>
	<line class="st16" x1="40" y1="17.7" x2="19" y2="17.7"/>
	<line class="st16" x1="40" y1="24.7" x2="19" y2="24.7"/>
	<line class="st16" x1="40" y1="31.7" x2="19" y2="31.7"/>
	<line class="st16" x1="40" y1="38.6" x2="19" y2="38.6"/>
	<line class="st16" x1="40" y1="45.6" x2="19" y2="45.6"/>
	<line class="st16" x1="43.6" y1="0" x2="43.6" y2="49.8"/>
</g>
<g class="st15">
	<line class="st16" x1="275.8" y1="0" x2="275.8" y2="49.8"/>
	<line class="st16" x1="300.5" y1="3.8" x2="279.4" y2="3.8"/>
	<line class="st16" x1="300.5" y1="10.7" x2="279.4" y2="10.7"/>
	<line class="st16" x1="300.5" y1="17.7" x2="279.4" y2="17.7"/>
	<line class="st16" x1="300.5" y1="24.7" x2="279.4" y2="24.7"/>
	<line class="st16" x1="300.5" y1="31.7" x2="279.4" y2="31.7"/>
	<line class="st16" x1="300.5" y1="38.6" x2="279.4" y2="38.6"/>
	<line class="st16" x1="300.5" y1="45.6" x2="279.4" y2="45.6"/>
	<line class="st16" x1="304.1" y1="0" x2="304.1" y2="49.8"/>
</g>
<g>
	<path class="st22" d="M90.6,27.1l-7.4-13.3h3.3l6,11l-0.8,0.1l5.9-11.1h3.3l-7.5,13.3v6.7h-2.7V27.1z"/>
	<path class="st22" d="M99.8,28c0-1.1,0.3-2.2,0.8-3.1c0.5-0.9,1.3-1.7,2.3-2.2c1-0.5,2.1-0.8,3.3-0.8s2.3,0.3,3.3,0.8
		c0.9,0.5,1.7,1.3,2.2,2.2c0.5,0.9,0.8,2,0.8,3.1s-0.3,2.2-0.8,3.1c-0.5,0.9-1.3,1.7-2.2,2.2c-0.9,0.5-2,0.8-3.3,0.8
		c-1.2,0-2.3-0.3-3.3-0.8c-1-0.5-1.7-1.2-2.3-2.1C100.1,30.3,99.8,29.2,99.8,28z M102.4,28c0,0.7,0.2,1.4,0.5,2
		c0.3,0.6,0.8,1.1,1.3,1.4c0.6,0.4,1.2,0.5,1.9,0.5c0.7,0,1.4-0.2,1.9-0.5s1-0.8,1.3-1.4c0.3-0.6,0.5-1.3,0.5-2s-0.2-1.4-0.5-2
		c-0.3-0.6-0.8-1.1-1.3-1.4c-0.6-0.4-1.2-0.5-1.9-0.5c-0.7,0-1.3,0.2-1.9,0.6s-1,0.9-1.3,1.5S102.4,27.3,102.4,28z"/>
	<path class="st22" d="M119.6,34.2c-1.1,0-1.9-0.3-2.6-1c-0.7-0.6-1-1.5-1.1-2.5v-8.5h2.6v7.6c0,0.6,0.2,1.1,0.6,1.5
		c0.3,0.4,0.8,0.6,1.6,0.6c0.6,0,1.2-0.2,1.7-0.6c0.5-0.4,0.9-0.9,1.2-1.5s0.5-1.4,0.5-2.2v-5.3h2.6v11.5h-2.4L124,31l0.2,0.5
		c-0.2,0.5-0.6,1-1,1.4c-0.4,0.4-1,0.7-1.6,1C120.9,34.1,120.3,34.2,119.6,34.2z"/>
	<path class="st22" d="M133.4,22.3l0.2,2.8l-0.1-0.4c0.4-0.8,0.9-1.5,1.8-2c0.8-0.5,1.8-0.8,2.9-0.8c1.1,0,2,0.3,2.6,1
		c0.7,0.6,1,1.5,1.1,2.5v8.5h-2.6v-7.6c0-0.6-0.2-1.1-0.5-1.5c-0.3-0.4-0.9-0.6-1.6-0.6c-0.6,0-1.2,0.2-1.8,0.6s-1,0.9-1.3,1.5
		c-0.3,0.6-0.5,1.4-0.5,2.2v5.4H131V22.3H133.4z"/>
	<path class="st22" d="M151.9,39.5c-0.8,0-1.6-0.1-2.3-0.3c-0.7-0.2-1.2-0.5-1.8-0.8c-0.5-0.4-1-0.7-1.5-1.2l1.5-1.8
		c0.6,0.6,1.2,1,1.9,1.3s1.3,0.5,2.1,0.5c0.9,0,1.6-0.1,2.2-0.4s1.1-0.7,1.4-1.2s0.5-1.1,0.5-1.7l0-3.1l0.2,0.5
		c-0.3,0.8-0.9,1.5-1.8,2c-0.9,0.5-1.9,0.8-3.2,0.8c-1,0-2-0.3-2.9-0.8c-0.9-0.5-1.6-1.3-2.1-2.2c-0.5-0.9-0.8-1.9-0.8-3.1
		c0-1.2,0.3-2.3,0.8-3.2s1.3-1.6,2.2-2.2c0.9-0.5,1.9-0.8,3-0.8c1,0,1.9,0.2,2.8,0.6c0.8,0.4,1.5,0.9,1.9,1.6l-0.2,0.5l0.2-2.2h2.4
		v11.5c0,1-0.3,2-0.8,2.8c-0.5,0.8-1.3,1.5-2.3,2C154.4,39.3,153.2,39.5,151.9,39.5z M147.9,28c0,0.7,0.2,1.4,0.5,2
		c0.4,0.6,0.8,1.1,1.4,1.4c0.6,0.4,1.3,0.5,2,0.5c0.7,0,1.3-0.1,1.8-0.4s1-0.6,1.4-1c0.4-0.4,0.6-0.9,0.8-1.5v-2.3
		c-0.2-0.6-0.4-1-0.8-1.4c-0.4-0.4-0.8-0.7-1.4-1c-0.5-0.2-1.1-0.4-1.8-0.4c-0.7,0-1.4,0.2-2,0.5c-0.6,0.3-1.1,0.8-1.4,1.4
		S147.9,27.2,147.9,28z"/>
	<path class="st22" d="M170.3,33.8L179,13h0.2l8.7,20.8h-3.1l-6.5-16.6l1.9-1.2L173,33.8H170.3z M175.4,26.2h7.4l0.9,2.3h-9.1
		L175.4,26.2z"/>
	<path class="st22" d="M195.4,34.1c-1.1,0-2-0.3-2.9-0.8c-0.8-0.5-1.5-1.2-2-2.2c-0.5-0.9-0.8-2-0.8-3.2c0-1.3,0.3-2.4,0.8-3.3
		c0.5-0.9,1.3-1.6,2.2-2.1c0.9-0.5,1.9-0.7,3-0.7c0.9,0,1.8,0.2,2.6,0.6c0.8,0.4,1.5,0.9,1.9,1.6l-0.1,0.9V12.4h2.6v21.4h-2.6V31
		l0.3,0.7c-0.6,0.7-1.3,1.3-2.1,1.7C197.5,33.9,196.5,34.1,195.4,34.1z M196.2,31.9c0.7,0,1.3-0.1,1.8-0.4s1-0.6,1.3-1
		c0.4-0.4,0.6-0.9,0.8-1.5v-2.2c-0.1-0.6-0.4-1-0.8-1.5c-0.4-0.4-0.8-0.8-1.4-1c-0.5-0.2-1.1-0.3-1.8-0.3c-0.7,0-1.3,0.2-1.9,0.5
		c-0.6,0.3-1.1,0.8-1.4,1.4s-0.5,1.3-0.5,2c0,0.8,0.2,1.4,0.5,2s0.8,1.1,1.4,1.4C194.9,31.7,195.6,31.9,196.2,31.9z"/>
	<path class="st22" d="M210.9,34.2c-1.1,0-1.9-0.3-2.6-1c-0.7-0.6-1-1.5-1.1-2.5v-8.5h2.6v7.6c0,0.6,0.2,1.1,0.6,1.5
		c0.3,0.4,0.8,0.6,1.6,0.6c0.6,0,1.2-0.2,1.7-0.6c0.5-0.4,0.9-0.9,1.2-1.5s0.5-1.4,0.5-2.2v-5.3h2.6v11.5h-2.4l-0.2-2.8l0.2,0.5
		c-0.2,0.5-0.6,1-1,1.4c-0.4,0.4-1,0.7-1.6,1S211.6,34.2,210.9,34.2z"/>
	<path class="st22" d="M222.3,12.4h2.6v21.4h-2.6V12.4z"/>
	<path class="st22" d="M230.4,17.3h2.6v5.1h3.1v2h-3.1v9.4h-2.6v-9.4h-2.1v-2h2.1V17.3z"/>
</g>
</svg>
