<?xml version="1.0" encoding="utf-8"?>
<!-- Generator: Adobe Illustrator 26.2.1, SVG Export Plug-In . SVG Version: 6.00 Build 0)  -->
<svg version="1.1" id="Layer_1" xmlns="http://www.w3.org/2000/svg" xmlns:xlink="http://www.w3.org/1999/xlink" x="0px" y="0px"
	 viewBox="0 0 319 50" style="enable-background:new 0 0 319 50;" xml:space="preserve">
<style type="text/css">
	.st0{fill:#BD0B0A;}
	.st1{opacity:0.5;fill:#BD0B0A;}
	.st2{fill:#C84B1F;}
	.st3{fill:none;stroke:#BD0B0A;stroke-width:0.6343;stroke-miterlimit:10;}
	.st4{fill:#FFFFFF;}
</style>
<g>
	
		<rect x="134.45" y="-134.53" transform="matrix(-1.836970e-16 1 -1 -1.836970e-16 184.451 -134.4695)" class="st0" width="50.02" height="319.04"/>
	
		<rect x="254.87" y="17.69" transform="matrix(-1.836970e-16 1 -1 -1.836970e-16 304.8651 -254.8835)" class="st1" width="50.02" height="14.61"/>
	
		<rect x="275.32" y="17.69" transform="matrix(-1.836970e-16 1 -1 -1.836970e-16 325.3208 -275.3393)" class="st1" width="50.02" height="14.61"/>
	
		<rect x="286.21" y="22.24" transform="matrix(-1.836970e-16 1 -1 -1.836970e-16 336.2064 -286.2249)" class="st2" width="50.02" height="5.51"/>
	
		<rect x="-6.54" y="22.24" transform="matrix(-1.836970e-16 1 -1 -1.836970e-16 43.457 6.5245)" class="st2" width="50.02" height="5.51"/>
	
		<rect x="4.24" y="17.69" transform="matrix(-1.836970e-16 1 -1 -1.836970e-16 54.2388 -4.2573)" class="st1" width="50.02" height="14.61"/>
	
		<rect x="24.7" y="17.69" transform="matrix(-1.836970e-16 1 -1 -1.836970e-16 74.6946 -24.7131)" class="st1" width="50.02" height="14.61"/>
	<ellipse class="st2" cx="162.21" cy="24.79" rx="68.07" ry="17.83"/>
	<path class="st3" d="M97.63,24.79c0-6.37,25.16-15.63,64.58-15.63c39.42,0,64.58,9.26,64.58,15.63s-25.16,15.63-64.58,15.63
		C122.79,40.42,97.63,31.16,97.63,24.79z"/>
</g>
<g>
	<path class="st4" d="M140.55,33.3H138v-8.35h-9.99v8.35h-2.56V14.25h2.56v8.25H138v-8.25h2.56V33.3z"/>
	<path class="st4" d="M145.26,24.8c0.52-0.89,1.24-1.58,2.16-2.09s1.96-0.76,3.12-0.76c1.16,0,2.19,0.25,3.1,0.76
		c0.9,0.51,1.61,1.2,2.11,2.08c0.5,0.88,0.75,1.86,0.75,2.95c0,1.09-0.25,2.08-0.75,2.96c-0.5,0.89-1.21,1.59-2.12,2.09
		c-0.91,0.51-1.96,0.76-3.13,0.76c-1.14,0-2.17-0.24-3.08-0.72c-0.91-0.48-1.63-1.16-2.15-2.04s-0.78-1.9-0.78-3.06
		C144.48,26.67,144.74,25.69,145.26,24.8z M147.42,29.66c0.31,0.58,0.73,1.04,1.26,1.37c0.54,0.33,1.13,0.5,1.78,0.5
		c1.02,0,1.86-0.36,2.53-1.08c0.67-0.72,1-1.62,1-2.69s-0.33-1.97-1-2.7c-0.67-0.73-1.51-1.09-2.53-1.09
		c-0.67,0-1.26,0.17-1.79,0.51s-0.94,0.8-1.25,1.38c-0.31,0.58-0.46,1.21-0.46,1.9C146.96,28.45,147.11,29.08,147.42,29.66z"/>
	<path class="st4" d="M163.36,23.39c0.52-0.46,1.07-0.81,1.65-1.05c0.58-0.25,1.09-0.38,1.53-0.4l-0.1,2.45
		c-0.79-0.04-1.51,0.12-2.15,0.47c-0.64,0.35-1.14,0.84-1.5,1.46c-0.36,0.62-0.54,1.29-0.54,1.99v4.98h-2.45V22.39h2.19l0.18,2.58
		C162.44,24.38,162.84,23.85,163.36,23.39z"/>
	<path class="st4" d="M173.26,23.39c0.52-0.46,1.07-0.81,1.65-1.05c0.58-0.25,1.09-0.38,1.53-0.4l-0.1,2.45
		c-0.79-0.04-1.51,0.12-2.15,0.47c-0.64,0.35-1.14,0.84-1.5,1.46c-0.36,0.62-0.54,1.29-0.54,1.99v4.98h-2.45V22.39h2.19l0.18,2.58
		C172.35,24.38,172.75,23.85,173.26,23.39z"/>
	<path class="st4" d="M178.96,24.8c0.52-0.89,1.24-1.58,2.16-2.09c0.92-0.51,1.96-0.76,3.12-0.76s2.19,0.25,3.1,0.76
		c0.9,0.51,1.61,1.2,2.11,2.08c0.5,0.88,0.75,1.86,0.75,2.95c0,1.09-0.25,2.08-0.75,2.96c-0.5,0.89-1.21,1.59-2.12,2.09
		c-0.91,0.51-1.96,0.76-3.13,0.76c-1.14,0-2.17-0.24-3.08-0.72c-0.91-0.48-1.63-1.16-2.15-2.04c-0.52-0.88-0.78-1.9-0.78-3.06
		C178.18,26.67,178.44,25.69,178.96,24.8z M181.12,29.66c0.31,0.58,0.73,1.04,1.27,1.37c0.54,0.33,1.13,0.5,1.78,0.5
		c1.02,0,1.86-0.36,2.53-1.08c0.67-0.72,1-1.62,1-2.69s-0.33-1.97-1-2.7c-0.67-0.73-1.51-1.09-2.53-1.09
		c-0.67,0-1.26,0.17-1.79,0.51s-0.94,0.8-1.25,1.38c-0.31,0.58-0.46,1.21-0.46,1.9C180.65,28.45,180.81,29.08,181.12,29.66z"/>
	<path class="st4" d="M197.06,23.39c0.52-0.46,1.07-0.81,1.65-1.05c0.58-0.25,1.09-0.38,1.53-0.4l-0.1,2.45
		c-0.79-0.04-1.51,0.12-2.15,0.47c-0.64,0.35-1.14,0.84-1.5,1.46c-0.36,0.62-0.54,1.29-0.54,1.99v4.98h-2.45V22.39h2.19l0.18,2.58
		C196.14,24.38,196.54,23.85,197.06,23.39z"/>
</g>
</svg>
