<?xml version="1.0" encoding="utf-8"?>
<!-- Generator: Adobe Illustrator 26.2.1, SVG Export Plug-In . SVG Version: 6.00 Build 0)  -->
<svg version="1.1" id="Layer_1" xmlns="http://www.w3.org/2000/svg" xmlns:xlink="http://www.w3.org/1999/xlink" x="0px" y="0px"
	 viewBox="0 0 319 50" style="enable-background:new 0 0 319 50;" xml:space="preserve">
<style type="text/css">
	.st0{fill:#BF4A44;}
	.st1{opacity:0.5;fill:none;stroke:#BD0B0A;stroke-miterlimit:10;}
	.st2{opacity:0.3;fill:#A6390B;}
	.st3{fill:#FFFFFF;}
</style>
<rect x="0.03" y="0.04" transform="matrix(-1 7.632449e-07 -7.632449e-07 -1 318.9442 49.991)" class="st0" width="318.88" height="49.91"/>
<line class="st1" x1="303.57" y1="49.95" x2="303.57" y2="0.04"/>
<rect x="283.5" y="0.04" class="st2" width="11.88" height="49.91"/>
<line class="st1" x1="275.31" y1="49.95" x2="275.31" y2="0.04"/>
<line class="st1" x1="44.08" y1="49.95" x2="44.08" y2="0.04"/>
<rect x="24.01" y="0.04" class="st2" width="11.88" height="49.91"/>
<line class="st1" x1="15.82" y1="49.95" x2="15.82" y2="0.04"/>
<g>
	<path class="st3" d="M67.82,34.41l-4.33-6.8c-0.14,0.02-0.34,0.03-0.61,0.03h-2.72v6.77h-2.47V16h4.91c1.26,0,2.38,0.22,3.36,0.66
		c0.98,0.44,1.76,1.09,2.32,1.95s0.84,1.89,0.84,3.09c0,1.14-0.25,2.18-0.75,3.13c-0.5,0.95-1.27,1.67-2.3,2.16l4.63,7.41H67.82z
		 M65.7,24.2c0.59-0.7,0.88-1.49,0.88-2.39c0-0.54-0.12-1.08-0.37-1.6s-0.64-0.96-1.17-1.31s-1.21-0.52-2.02-0.52h-2.85v6.88h2.67
		C64.16,25.24,65.11,24.9,65.7,24.2z"/>
	<path class="st3" d="M73.41,26.2c0.5-0.86,1.2-1.53,2.09-2.02c0.89-0.49,1.9-0.74,3.02-0.74c1.12,0,2.12,0.25,2.99,0.74
		c0.87,0.49,1.55,1.16,2.04,2.01s0.73,1.8,0.73,2.85c0,1.05-0.24,2.01-0.73,2.87c-0.48,0.86-1.17,1.53-2.05,2.02
		c-0.88,0.49-1.89,0.74-3.03,0.74c-1.1,0-2.1-0.23-2.98-0.7c-0.88-0.47-1.57-1.12-2.08-1.97c-0.5-0.85-0.75-1.83-0.75-2.95
		C72.66,28,72.91,27.06,73.41,26.2z M75.5,30.9c0.3,0.56,0.7,1,1.22,1.32c0.52,0.32,1.09,0.48,1.72,0.48c0.98,0,1.8-0.35,2.44-1.04
		c0.64-0.7,0.97-1.56,0.97-2.6c0-1.04-0.32-1.91-0.97-2.61c-0.65-0.7-1.46-1.06-2.44-1.06c-0.65,0-1.22,0.17-1.73,0.5
		s-0.91,0.78-1.21,1.34s-0.45,1.17-0.45,1.83C75.06,29.73,75.2,30.34,75.5,30.9z"/>
	<path class="st3" d="M103.41,24.3c0.6,0.58,0.92,1.34,0.95,2.29v7.82H102v-6.95c-0.05-1.24-0.61-1.89-1.68-1.96
		c-0.61,0-1.16,0.18-1.64,0.55s-0.86,0.84-1.13,1.44c-0.27,0.59-0.42,1.23-0.43,1.91v5.02h-2.39v-6.95
		c-0.05-1.24-0.63-1.89-1.73-1.96c-0.59,0-1.13,0.18-1.62,0.55s-0.86,0.85-1.13,1.45s-0.41,1.24-0.41,1.92v4.99h-2.37V23.87h2.14
		l0.18,1.99c0.41-0.76,0.96-1.36,1.67-1.78c0.7-0.42,1.51-0.64,2.41-0.64c0.85,0,1.56,0.2,2.14,0.6c0.58,0.4,0.95,0.95,1.12,1.64
		c0.44-0.7,1-1.24,1.68-1.64c0.68-0.4,1.41-0.6,2.19-0.6C102,23.44,102.81,23.73,103.41,24.3z"/>
	<path class="st3" d="M119.28,23.87v10.54h-2.37v-1.73c-0.37,0.49-0.92,0.95-1.63,1.36s-1.52,0.62-2.42,0.62
		c-1,0-1.91-0.22-2.71-0.65c-0.81-0.43-1.44-1.07-1.91-1.9c-0.47-0.83-0.7-1.82-0.7-2.98s0.24-2.16,0.73-3.02s1.14-1.52,1.96-1.99
		s1.74-0.7,2.74-0.7c0.9,0,1.68,0.2,2.34,0.59s1.2,0.9,1.6,1.53l0.18-1.68H119.28z M115.73,31.98c0.62-0.48,1.01-1.14,1.18-1.97
		v-2.09c-0.2-0.75-0.63-1.35-1.27-1.82c-0.65-0.47-1.38-0.7-2.22-0.7c-0.63,0-1.21,0.15-1.74,0.46s-0.96,0.73-1.27,1.29
		s-0.47,1.18-0.47,1.87c0,0.68,0.16,1.3,0.48,1.86c0.32,0.56,0.76,1.01,1.3,1.34c0.54,0.33,1.14,0.5,1.78,0.5
		C114.37,32.7,115.11,32.46,115.73,31.98z"/>
	<path class="st3" d="M132.4,24.34c0.65,0.58,0.98,1.35,0.99,2.28v7.79H131v-6.98c-0.03-0.59-0.21-1.06-0.53-1.4
		c-0.32-0.34-0.81-0.52-1.45-0.54c-0.93,0-1.71,0.37-2.32,1.12c-0.61,0.75-0.92,1.7-0.92,2.85v4.94h-2.37V23.87h2.14l0.15,2.04
		c0.37-0.76,0.93-1.36,1.68-1.79s1.6-0.65,2.57-0.65C130.94,23.46,131.75,23.75,132.4,24.34z"/>
	<path class="st3" d="M144.35,34.33c-0.65,0.22-1.32,0.33-2,0.33c-1.14,0-2.14-0.23-3.02-0.69c-0.87-0.46-1.55-1.11-2.04-1.95
		c-0.48-0.84-0.73-1.81-0.73-2.92c0-1.09,0.25-2.05,0.76-2.89c0.51-0.84,1.19-1.49,2.04-1.95c0.85-0.46,1.77-0.69,2.75-0.69
		c1.61,0,2.94,0.44,4,1.32l-1.2,1.55c-0.34-0.25-0.73-0.47-1.17-0.65s-0.92-0.27-1.43-0.27c-0.63,0-1.2,0.16-1.72,0.47
		c-0.52,0.31-0.93,0.74-1.22,1.29c-0.3,0.54-0.45,1.15-0.45,1.81s0.16,1.26,0.47,1.81c0.31,0.54,0.74,0.98,1.29,1.3
		c0.54,0.32,1.16,0.48,1.86,0.48c0.87,0,1.62-0.25,2.27-0.76l1.22,1.48C145.57,33.81,145.01,34.11,144.35,34.33z"/>
	<path class="st3" d="M156.61,31.71l1.09,1.76c-0.56,0.37-1.17,0.67-1.82,0.88c-0.65,0.21-1.29,0.32-1.9,0.32
		c-1.17,0-2.19-0.24-3.07-0.73c-0.87-0.48-1.55-1.15-2.02-2c-0.48-0.85-0.71-1.81-0.71-2.88c0-1.04,0.26-1.98,0.78-2.84
		c0.52-0.86,1.23-1.54,2.13-2.04c0.9-0.5,1.88-0.75,2.95-0.75c1.38,0,2.53,0.4,3.45,1.21c0.93,0.81,1.56,1.93,1.9,3.37l-8.35,2.93
		c0.31,0.53,0.72,0.94,1.23,1.24c0.52,0.3,1.11,0.45,1.77,0.45C154.92,32.63,155.78,32.32,156.61,31.71z M151.47,26.34
		c-0.63,0.68-0.94,1.54-0.94,2.6c0,0.25,0.01,0.45,0.03,0.59l6.14-2.27c-0.25-0.58-0.62-1.04-1.08-1.4s-1.05-0.53-1.74-0.53
		C152.89,25.32,152.1,25.66,151.47,26.34z"/>
</g>
</svg>
