<?xml version="1.0" encoding="utf-8"?>
<!-- Generator: Adobe Illustrator 26.2.1, SVG Export Plug-In . SVG Version: 6.00 Build 0)  -->
<svg version="1.1" id="Layer_1" xmlns="http://www.w3.org/2000/svg" xmlns:xlink="http://www.w3.org/1999/xlink" x="0px" y="0px"
	 viewBox="0 0 319 50" style="enable-background:new 0 0 319 50;" xml:space="preserve">
<style type="text/css">
	.st0{fill:#C84B1F;}
	.st1{fill:#FF994E;}
	.st2{opacity:0.4;fill:none;stroke:#D22739;stroke-width:0.8783;stroke-miterlimit:10;}
	.st3{fill:#BF4A44;}
	.st4{opacity:0.3;fill:#DB948E;}
	.st5{fill:none;stroke:#561103;stroke-width:1.1047;stroke-miterlimit:10;}
	.st6{fill:#BD0B0A;}
	.st7{opacity:0.5;fill:#BD0B0A;}
	.st8{fill:none;stroke:#BD0B0A;stroke-width:0.6343;stroke-miterlimit:10;}
	.st9{fill:#A6390B;}
	.st10{opacity:0.5;clip-path:url(#SVGID_00000057121832961461509880000006706023551933800617_);}
	.st11{fill:none;stroke:#FF994E;stroke-miterlimit:10;}
	.st12{opacity:0.5;clip-path:url(#SVGID_00000053523555932189889400000000067390327469962662_);}
	.st13{fill:none;stroke:#A6390B;stroke-miterlimit:10;}
	.st14{opacity:0.3;fill:none;stroke:#C84B1F;stroke-miterlimit:10;}
	.st15{opacity:0.5;}
	.st16{fill:none;stroke:#BD0B0A;stroke-width:1.0073;stroke-miterlimit:10;}
	.st17{fill:#561103;}
	.st18{opacity:0.3;fill:#A6390B;}
	.st19{opacity:0.3;fill:none;stroke:#DB948E;stroke-width:1.0593;stroke-miterlimit:10;}
	.st20{opacity:0.3;fill:none;stroke:#DB948E;stroke-width:0.9079;stroke-miterlimit:10;}
	.st21{fill:none;stroke:#BF4A44;stroke-width:1.0086;stroke-miterlimit:10;}
	.st22{fill:#FFFFFF;}
	.st23{opacity:0.5;fill:none;stroke:#BD0B0A;stroke-miterlimit:10;}
	.st24{fill:none;stroke:#FF994E;stroke-width:1.0073;stroke-miterlimit:10;}
</style>
<rect x="0" y="0" transform="matrix(-1 7.643204e-07 -7.643204e-07 -1 319.0001 49.9998)" class="st0" width="319" height="50"/>
<line class="st23" x1="303.7" y1="50" x2="303.7" y2="0"/>
<rect x="283.6" y="0" class="st18" width="11.9" height="50"/>
<line class="st23" x1="275.4" y1="50" x2="275.4" y2="0"/>
<line class="st23" x1="44.1" y1="50" x2="44.1" y2="0"/>
<rect x="24" y="0" class="st18" width="11.9" height="50"/>
<line class="st23" x1="15.8" y1="50" x2="15.8" y2="0"/>
<g>
	<path class="st22" d="M99.2,15.8c1.9,0,3.3,0.4,4.4,1.1c1.1,0.8,1.6,1.9,1.6,3.5c0,1-0.2,1.8-0.7,2.5c-0.4,0.7-1.1,1.3-1.8,1.7
		c-0.8,0.4-1.7,0.6-2.8,0.7l-0.4-1.3c1.2,0,2.4,0.3,3.3,0.7c1,0.4,1.8,1,2.3,1.7c0.6,0.7,0.9,1.6,0.9,2.6c0,0.9-0.2,1.7-0.5,2.4
		c-0.3,0.7-0.8,1.2-1.4,1.6c-0.6,0.4-1.2,0.7-2,0.9c-0.7,0.2-1.5,0.3-2.3,0.3h-5.5V15.8H99.2z M99.7,23.9c1,0,1.8-0.3,2.2-0.8
		s0.7-1.2,0.7-2c0-1-0.3-1.7-0.9-2.1c-0.6-0.4-1.4-0.7-2.4-0.7H97v5.7H99.7z M99.9,31.9c0.7,0,1.3-0.1,1.9-0.3c0.6-0.2,1-0.5,1.3-1
		c0.3-0.4,0.5-1,0.5-1.6c0-0.7-0.2-1.3-0.6-1.7c-0.4-0.4-0.9-0.7-1.5-0.9c-0.6-0.2-1.2-0.3-1.8-0.3H97v5.7H99.9z"/>
	<path class="st22" d="M109.5,19.9c0-0.4,0.1-0.7,0.4-0.9c0.3-0.3,0.6-0.4,1-0.4c0.4,0,0.7,0.1,1,0.4c0.3,0.3,0.4,0.6,0.4,0.9
		c0,0.4-0.1,0.7-0.4,1c-0.3,0.2-0.6,0.4-1,0.4c-0.4,0-0.7-0.1-1-0.4C109.6,20.6,109.5,20.2,109.5,19.9z M109.6,23.7h2.4v10.5h-2.4
		V23.7z"/>
	<path class="st22" d="M115.2,28.8c0-1.1,0.3-2,0.8-2.9c0.5-0.8,1.2-1.5,2.1-2c0.9-0.5,1.9-0.7,3-0.7s2.1,0.2,3,0.7
		c0.9,0.5,1.5,1.2,2,2c0.5,0.8,0.7,1.8,0.7,2.9c0,1.1-0.2,2-0.7,2.9c-0.5,0.8-1.2,1.5-2,2c-0.9,0.5-1.9,0.8-3,0.8
		c-1.1,0-2.1-0.2-3-0.7c-0.9-0.5-1.6-1.1-2.1-2C115.4,31,115.2,30,115.2,28.8z M117.6,28.9c0,0.7,0.2,1.3,0.5,1.8
		c0.3,0.6,0.7,1,1.2,1.3c0.5,0.3,1.1,0.5,1.7,0.5c0.7,0,1.2-0.2,1.8-0.5c0.5-0.3,0.9-0.8,1.2-1.3c0.3-0.6,0.4-1.2,0.4-1.8
		c0-0.7-0.1-1.3-0.4-1.8c-0.3-0.6-0.7-1-1.2-1.3c-0.5-0.3-1.1-0.5-1.8-0.5c-0.6,0-1.2,0.2-1.7,0.5s-0.9,0.8-1.2,1.3
		C117.7,27.6,117.6,28.2,117.6,28.9z"/>
	<path class="st22" d="M135.1,39.5c-0.8,0-1.5-0.1-2.1-0.3c-0.6-0.2-1.1-0.4-1.6-0.8c-0.5-0.3-1-0.7-1.4-1.1l1.4-1.6
		c0.6,0.5,1.1,0.9,1.7,1.2c0.6,0.3,1.2,0.4,1.9,0.4c0.8,0,1.5-0.1,2-0.4c0.6-0.3,1-0.6,1.2-1.1c0.3-0.5,0.4-1,0.4-1.6l0-2.9l0.2,0.5
		c-0.3,0.7-0.9,1.3-1.7,1.8c-0.8,0.5-1.8,0.8-2.9,0.8c-1,0-1.8-0.2-2.6-0.7c-0.8-0.5-1.5-1.2-2-2c-0.5-0.8-0.7-1.8-0.7-2.8
		c0-1.1,0.3-2.1,0.8-2.9c0.5-0.8,1.2-1.5,2-2c0.8-0.5,1.8-0.7,2.7-0.7c0.9,0,1.8,0.2,2.6,0.6c0.8,0.4,1.3,0.9,1.7,1.5l-0.2,0.4
		l0.2-2h2.2v10.6c0,1-0.2,1.8-0.7,2.6c-0.5,0.8-1.2,1.4-2.1,1.9C137.4,39.2,136.3,39.5,135.1,39.5z M131.5,28.8
		c0,0.7,0.2,1.3,0.5,1.9c0.3,0.6,0.8,1,1.3,1.3c0.6,0.3,1.2,0.5,1.8,0.5c0.6,0,1.2-0.1,1.7-0.3c0.5-0.2,0.9-0.5,1.3-1
		c0.3-0.4,0.6-0.9,0.7-1.3v-2.1c-0.2-0.5-0.4-1-0.8-1.3c-0.4-0.4-0.8-0.7-1.3-0.9c-0.5-0.2-1-0.3-1.6-0.3c-0.7,0-1.3,0.2-1.8,0.5
		s-1,0.7-1.3,1.3C131.6,27.5,131.5,28.1,131.5,28.8z"/>
	<path class="st22" d="M147.4,23.7l0.2,3.1l-0.1-0.4c0.3-0.6,0.7-1.2,1.2-1.6c0.5-0.5,1.1-0.8,1.6-1c0.6-0.2,1.1-0.4,1.5-0.4
		l-0.1,2.4c-0.8-0.1-1.5,0.1-2.1,0.4c-0.6,0.4-1.1,0.8-1.4,1.4c-0.3,0.6-0.5,1.2-0.5,1.9v4.8h-2.4V23.7H147.4z"/>
	<path class="st22" d="M158.9,34.5c-1,0-1.9-0.2-2.7-0.6c-0.8-0.4-1.4-1-1.9-1.9c-0.5-0.8-0.7-1.8-0.7-3s0.2-2.2,0.7-3.1
		c0.5-0.8,1.2-1.5,2-2c0.8-0.5,1.7-0.7,2.7-0.7s1.8,0.2,2.5,0.7c0.7,0.5,1.2,1,1.5,1.6l-0.2,0.4l0.2-2.2h2.2v10.5H163v-2.8l0.3,0.6
		c-0.1,0.2-0.2,0.4-0.5,0.6c-0.2,0.3-0.5,0.5-0.9,0.8s-0.8,0.5-1.3,0.7C160.1,34.4,159.6,34.5,158.9,34.5z M159.6,32.5
		c0.6,0,1.1-0.1,1.6-0.3c0.5-0.2,0.9-0.5,1.2-0.9c0.3-0.4,0.5-0.9,0.6-1.4v-2.1c-0.1-0.5-0.4-1-0.7-1.3c-0.3-0.4-0.7-0.7-1.2-0.9
		c-0.5-0.2-1-0.3-1.6-0.3c-0.6,0-1.2,0.2-1.8,0.5c-0.5,0.3-0.9,0.7-1.3,1.3c-0.3,0.5-0.5,1.2-0.5,1.9c0,0.7,0.2,1.3,0.5,1.9
		c0.3,0.6,0.8,1,1.3,1.3C158.4,32.4,159,32.5,159.6,32.5z"/>
	<path class="st22" d="M175.7,34.5c-0.8,0-1.6-0.2-2.3-0.6c-0.7-0.4-1.3-0.9-1.7-1.5l0.1-0.7v7.6h-2.4V23.5h2.1l0.3,2.7l-0.3-0.8
		c0.5-0.6,1.2-1.2,1.9-1.6s1.7-0.6,2.6-0.6c1,0,1.9,0.2,2.7,0.7c0.8,0.5,1.4,1.1,1.9,2c0.5,0.9,0.7,1.9,0.7,3c0,1.1-0.2,2.1-0.7,2.9
		c-0.5,0.8-1.2,1.5-2,1.9C177.8,34.3,176.8,34.5,175.7,34.5z M175.3,32.6c0.7,0,1.3-0.2,1.9-0.5c0.6-0.3,1-0.7,1.4-1.3
		c0.3-0.6,0.5-1.2,0.5-1.9c0-0.7-0.2-1.3-0.5-1.9c-0.3-0.6-0.8-1-1.3-1.3c-0.5-0.3-1.1-0.5-1.8-0.5c-0.6,0-1.2,0.1-1.7,0.3
		c-0.5,0.2-0.9,0.5-1.2,1c-0.3,0.4-0.6,0.9-0.7,1.5v1.8c0.1,0.5,0.3,1,0.6,1.4c0.3,0.4,0.7,0.8,1.2,1
		C174.2,32.5,174.7,32.6,175.3,32.6z"/>
	<path class="st22" d="M184.6,34.2V14.5h2.3v11.6l-0.1-0.4c0.4-0.7,0.9-1.3,1.6-1.7c0.7-0.5,1.6-0.7,2.6-0.7c1,0,1.8,0.3,2.4,0.9
		s1,1.3,1,2.3v7.8h-2.4v-7c0-0.6-0.2-1-0.5-1.4c-0.3-0.4-0.8-0.5-1.5-0.5c-0.6,0-1.1,0.2-1.6,0.5c-0.5,0.3-0.9,0.8-1.2,1.4
		s-0.4,1.3-0.4,2v4.9H184.6z"/>
	<path class="st22" d="M198.5,19.9c0-0.4,0.1-0.7,0.4-0.9c0.3-0.3,0.6-0.4,1-0.4s0.7,0.1,1,0.4c0.3,0.3,0.4,0.6,0.4,0.9
		c0,0.4-0.1,0.7-0.4,1s-0.6,0.4-1,0.4s-0.7-0.1-1-0.4C198.7,20.6,198.5,20.2,198.5,19.9z M198.7,23.7h2.4v10.5h-2.4V23.7z"/>
	<path class="st22" d="M210,34.5c-1.2,0-2.2-0.2-3.1-0.7c-0.9-0.5-1.5-1.1-2-2c-0.5-0.8-0.7-1.8-0.7-2.9c0-1,0.3-2,0.8-2.8
		c0.5-0.8,1.2-1.5,2.1-2c0.9-0.5,1.9-0.8,3-0.8c1.4,0,2.5,0.4,3.5,1.2c0.9,0.8,1.5,1.9,1.9,3.4l-8.7,3.1l-0.6-1.4l7.1-2.6l-0.5,0.4
		c-0.2-0.6-0.5-1-1-1.5c-0.5-0.4-1.1-0.6-1.9-0.6c-0.6,0-1.2,0.2-1.7,0.5s-0.9,0.7-1.2,1.3c-0.3,0.5-0.4,1.2-0.4,1.9
		s0.1,1.3,0.4,1.9s0.7,1,1.2,1.3c0.5,0.3,1.1,0.5,1.8,0.5c0.5,0,0.9-0.1,1.3-0.3c0.4-0.2,0.8-0.4,1.2-0.7l1.1,1.8
		c-0.5,0.4-1.1,0.6-1.8,0.9S210.7,34.5,210,34.5z"/>
	<path class="st22" d="M221.4,34.4c-0.7,0-1.5-0.1-2.2-0.4c-0.7-0.3-1.3-0.7-1.7-1.2l1-1.4c0.5,0.4,0.9,0.7,1.4,1
		c0.5,0.2,0.9,0.3,1.4,0.3c0.3,0,0.7,0,0.9-0.1s0.5-0.2,0.7-0.4c0.2-0.2,0.3-0.5,0.3-0.8c0-0.4-0.1-0.7-0.4-0.9
		c-0.2-0.2-0.6-0.4-0.9-0.5c-0.4-0.1-0.8-0.3-1.2-0.4c-0.9-0.3-1.5-0.7-2-1.2c-0.5-0.5-0.7-1.1-0.7-1.9c0-0.6,0.1-1.1,0.4-1.6
		c0.3-0.5,0.7-0.9,1.3-1.2c0.6-0.3,1.2-0.5,2-0.5c0.7,0,1.4,0.1,2,0.3c0.6,0.2,1.1,0.5,1.6,0.9l-0.9,1.5c-0.3-0.3-0.7-0.6-1.1-0.7
		c-0.4-0.2-0.8-0.2-1.1-0.2c-0.3,0-0.6,0-0.9,0.1c-0.3,0.1-0.5,0.2-0.6,0.4c-0.2,0.2-0.2,0.4-0.2,0.7c0,0.4,0.1,0.6,0.3,0.9
		c0.2,0.2,0.6,0.4,0.9,0.5c0.4,0.1,0.8,0.3,1.1,0.4c0.5,0.2,1,0.4,1.4,0.6c0.4,0.3,0.7,0.6,1,0.9c0.2,0.4,0.4,0.8,0.4,1.4
		c0,0.6-0.1,1.2-0.4,1.7c-0.3,0.5-0.7,1-1.4,1.3C223.1,34.3,222.3,34.4,221.4,34.4z"/>
</g>
</svg>
