<?xml version="1.0" encoding="utf-8"?>
<!-- Generator: Adobe Illustrator 26.2.1, SVG Export Plug-In . SVG Version: 6.00 Build 0)  -->
<svg version="1.1" id="Layer_1" xmlns="http://www.w3.org/2000/svg" xmlns:xlink="http://www.w3.org/1999/xlink" x="0px" y="0px"
	 viewBox="0 0 429 66" style="enable-background:new 0 0 429 66;" xml:space="preserve">
<style type="text/css">
	.st0{fill:#C84B1F;}
	.st1{fill:#FF994E;}
	.st2{opacity:0.4;fill:none;stroke:#D22739;stroke-width:0.8783;stroke-miterlimit:10;}
	.st3{fill:#BF4A44;}
	.st4{opacity:0.3;fill:#DB948E;}
	.st5{fill:none;stroke:#561103;stroke-width:1.1047;stroke-miterlimit:10;}
	.st6{fill:#BD0B0A;}
	.st7{opacity:0.5;fill:#BD0B0A;}
	.st8{fill:none;stroke:#BD0B0A;stroke-width:0.6343;stroke-miterlimit:10;}
	.st9{fill:#A6390B;}
	.st10{opacity:0.5;clip-path:url(#SVGID_00000114788122244609137730000006408872147204276149_);}
	.st11{fill:none;stroke:#FF994E;stroke-miterlimit:10;}
	.st12{opacity:0.5;clip-path:url(#SVGID_00000009548562741940710850000003084242426579946135_);}
	.st13{fill:none;stroke:#A6390B;stroke-miterlimit:10;}
	.st14{opacity:0.3;fill:none;stroke:#C84B1F;stroke-miterlimit:10;}
	.st15{opacity:0.5;}
	.st16{fill:none;stroke:#BD0B0A;stroke-width:1.0073;stroke-miterlimit:10;}
	.st17{fill:#561103;}
	.st18{opacity:0.3;fill:#A6390B;}
	.st19{opacity:0.3;fill:none;stroke:#DB948E;stroke-width:1.0593;stroke-miterlimit:10;}
	.st20{opacity:0.3;fill:none;stroke:#DB948E;stroke-width:0.9079;stroke-miterlimit:10;}
	.st21{fill:none;stroke:#BF4A44;stroke-width:1.0086;stroke-miterlimit:10;}
	.st22{fill:#FFFFFF;}
	.st23{opacity:0.5;fill:none;stroke:#BD0B0A;stroke-miterlimit:10;}
	.st24{fill:none;stroke:#FF994E;stroke-width:1.0073;stroke-miterlimit:10;}
</style>
<rect x="181.5" y="-181.5" transform="matrix(-1.836970e-16 1 -1 -1.836970e-16 247.5235 -181.4765)" class="st17" width="66" height="429"/>
<rect x="4" y="21.8" transform="matrix(-1.836970e-16 1 -1 -1.836970e-16 63.3189 2.728)" class="st6" width="52.5" height="22.4"/>
<line class="st21" x1="16" y1="0" x2="16" y2="66"/>
<line class="st21" x1="44.6" y1="0" x2="44.6" y2="66"/>
<rect x="374.9" y="21.8" transform="matrix(-1.836970e-16 1 -1 -1.836970e-16 434.2116 -368.1647)" class="st6" width="52.5" height="22.4"/>
<line class="st21" x1="386.9" y1="0" x2="386.9" y2="66"/>
<line class="st21" x1="415.5" y1="0" x2="415.5" y2="66"/>
<path class="st21" d="M45.4,16.7c19-16.1,21.1,3.3,6.8,6.4c37.1-9.4,28.9,12.7,3.4,10c33,3.3,20.1,22.4-2.7,8.5
	c25.5,13.6-0.3,20.9-8.2,6.1"/>
<path class="st21" d="M386.4,49.5c-19,16.1-21.1-3.3-6.8-6.4c-37.1,9.4-28.9-12.7-3.4-10c-33-3.3-20.1-22.4,2.7-8.5
	c-25.5-13.6,0.3-20.9,8.2-6.1"/>
<g>
	<path class="st22" d="M137.5,48.9l-21.5-19.4l1.7,0.9l0.1,17.4h-5.7V18.2h0.2l21.1,19.4l-1.2-0.5L132,19.3h5.6v29.6H137.5z"/>
	<path class="st22" d="M142.8,39.1c0-1.7,0.4-3.3,1.2-4.6c0.8-1.4,1.9-2.4,3.4-3.2c1.5-0.8,3.2-1.2,5.1-1.2c1.9,0,3.6,0.4,5,1.2
		c1.4,0.8,2.5,1.9,3.3,3.2c0.8,1.4,1.1,2.9,1.1,4.6s-0.4,3.3-1.1,4.6c-0.8,1.4-1.8,2.5-3.3,3.3c-1.4,0.8-3.1,1.2-5.1,1.2
		c-1.9,0-3.5-0.4-5-1.1c-1.5-0.7-2.6-1.8-3.4-3.1C143.2,42.6,142.8,41,142.8,39.1z M148.2,39.1c0,0.9,0.2,1.7,0.5,2.4
		c0.4,0.7,0.8,1.3,1.5,1.7c0.6,0.4,1.3,0.6,2.1,0.6c0.8,0,1.6-0.2,2.2-0.6c0.6-0.4,1.1-1,1.4-1.7c0.3-0.7,0.5-1.5,0.5-2.4
		c0-0.9-0.2-1.7-0.5-2.4c-0.3-0.7-0.8-1.2-1.4-1.7c-0.6-0.4-1.4-0.6-2.2-0.6c-0.8,0-1.5,0.2-2.1,0.6c-0.6,0.4-1.1,1-1.5,1.7
		C148.4,37.4,148.2,38.2,148.2,39.1z"/>
	<path class="st22" d="M171,30.9l0.4,3l-0.1-0.3c0.6-1.1,1.4-1.9,2.5-2.6c1.1-0.7,2.4-1,4-1c1.6,0,2.9,0.5,4,1.4
		c1.1,0.9,1.6,2.2,1.6,3.6v12.6h-5.4V37.1c0-0.7-0.2-1.3-0.6-1.8c-0.4-0.5-1-0.7-1.9-0.7c-0.8,0-1.5,0.3-2.2,0.8
		c-0.6,0.5-1.1,1.3-1.4,2.2c-0.3,0.9-0.5,2-0.5,3.2v6.9h-5.4V30.9H171z"/>
	<path class="st22" d="M202.5,19.3h17.8v5.4h-12.2v6.4h10.5v5.4h-10.5v11.2h-5.6V19.3z"/>
	<path class="st22" d="M224.6,24.9c0-0.8,0.3-1.5,0.9-2s1.3-0.8,2-0.8c0.7,0,1.4,0.3,2,0.8c0.6,0.5,0.9,1.2,0.9,2
		c0,0.8-0.3,1.4-0.9,1.9c-0.6,0.5-1.3,0.8-2,0.8c-0.7,0-1.4-0.3-2-0.8C224.9,26.4,224.6,25.7,224.6,24.9z M224.7,30.9h5.4v16.9h-5.4
		V30.9z"/>
	<path class="st22" d="M250,46.2c-0.7,0.6-1.7,1.1-2.8,1.4s-2.2,0.5-3.3,0.5c-1.9,0-3.6-0.4-5-1.1c-1.4-0.7-2.5-1.7-3.3-3
		c-0.8-1.3-1.2-2.9-1.2-4.8s0.4-3.5,1.3-4.8c0.8-1.3,2-2.3,3.3-3c1.4-0.7,2.8-1,4.3-1s2.8,0.2,4,0.6s2.1,1,2.9,1.6l-2.6,3.5
		c-0.4-0.3-0.9-0.6-1.5-0.9c-0.6-0.3-1.4-0.4-2.2-0.4c-0.7,0-1.4,0.2-2,0.6c-0.6,0.4-1.1,0.9-1.5,1.6c-0.4,0.7-0.5,1.4-0.5,2.3
		c0,0.8,0.2,1.6,0.6,2.3c0.4,0.7,0.9,1.2,1.6,1.6c0.7,0.4,1.5,0.6,2.4,0.6c0.6,0,1.1-0.1,1.6-0.2s0.9-0.4,1.3-0.7L250,46.2z"/>
	<path class="st22" d="M255.8,23.5h5.4v7.3h4.1V35h-4.1v12.7h-5.4V35h-2.6v-4.2h2.6V23.5z"/>
	<path class="st22" d="M269.3,24.9c0-0.8,0.3-1.5,0.9-2s1.3-0.8,2-0.8c0.7,0,1.4,0.3,2,0.8c0.6,0.5,0.9,1.2,0.9,2
		c0,0.8-0.3,1.4-0.9,1.9c-0.6,0.5-1.3,0.8-2,0.8c-0.7,0-1.4-0.3-2-0.8C269.6,26.4,269.3,25.7,269.3,24.9z M269.4,30.9h5.4v16.9h-5.4
		V30.9z"/>
	<path class="st22" d="M279,39.1c0-1.7,0.4-3.3,1.2-4.6c0.8-1.4,1.9-2.4,3.4-3.2c1.5-0.8,3.2-1.2,5.1-1.2c1.9,0,3.6,0.4,5,1.2
		c1.4,0.8,2.5,1.9,3.3,3.2s1.1,2.9,1.1,4.6s-0.4,3.3-1.1,4.6c-0.8,1.4-1.8,2.5-3.3,3.3c-1.4,0.8-3.1,1.2-5.1,1.2
		c-1.9,0-3.5-0.4-5-1.1s-2.6-1.8-3.4-3.1C279.4,42.6,279,41,279,39.1z M284.5,39.1c0,0.9,0.2,1.7,0.5,2.4c0.4,0.7,0.8,1.3,1.5,1.7
		c0.6,0.4,1.3,0.6,2.1,0.6c0.8,0,1.6-0.2,2.2-0.6c0.6-0.4,1.1-1,1.4-1.7c0.3-0.7,0.5-1.5,0.5-2.4c0-0.9-0.2-1.7-0.5-2.4
		s-0.8-1.2-1.4-1.7c-0.6-0.4-1.4-0.6-2.2-0.6c-0.8,0-1.5,0.2-2.1,0.6c-0.6,0.4-1.1,1-1.5,1.7S284.5,38.2,284.5,39.1z"/>
	<path class="st22" d="M307.3,30.9l0.4,3l-0.1-0.3c0.6-1.1,1.4-1.9,2.5-2.6c1.1-0.7,2.4-1,4-1c1.6,0,2.9,0.5,4,1.4
		c1.1,0.9,1.6,2.2,1.6,3.6v12.6h-5.4V37.1c0-0.7-0.2-1.3-0.6-1.8s-1-0.7-1.9-0.7c-0.8,0-1.5,0.3-2.2,0.8s-1.1,1.3-1.4,2.2
		c-0.3,0.9-0.5,2-0.5,3.2v6.9h-5.4V30.9H307.3z"/>
</g>
</svg>
