<?xml version="1.0" encoding="utf-8"?>
<!-- Generator: Adobe Illustrator 26.2.1, SVG Export Plug-In . SVG Version: 6.00 Build 0)  -->
<svg version="1.1" id="Layer_1" xmlns="http://www.w3.org/2000/svg" xmlns:xlink="http://www.w3.org/1999/xlink" x="0px" y="0px"
	 viewBox="0 0 319 50" style="enable-background:new 0 0 319 50;" xml:space="preserve">
<style type="text/css">
	.st0{fill:#C84B1F;}
	.st1{fill:#FF994E;}
	.st2{opacity:0.4;fill:none;stroke:#D22739;stroke-width:0.8783;stroke-miterlimit:10;}
	.st3{fill:#BF4A44;}
	.st4{opacity:0.3;fill:#DB948E;}
	.st5{fill:none;stroke:#561103;stroke-width:1.1047;stroke-miterlimit:10;}
	.st6{fill:#BD0B0A;}
	.st7{opacity:0.5;fill:#BD0B0A;}
	.st8{fill:none;stroke:#BD0B0A;stroke-width:0.6343;stroke-miterlimit:10;}
	.st9{fill:#A6390B;}
	.st10{opacity:0.5;clip-path:url(#SVGID_00000109013432764257081630000009664147758816299166_);}
	.st11{fill:none;stroke:#FF994E;stroke-miterlimit:10;}
	.st12{opacity:0.5;clip-path:url(#SVGID_00000121248011559923157360000002652626217982330499_);}
	.st13{fill:none;stroke:#A6390B;stroke-miterlimit:10;}
	.st14{opacity:0.3;fill:none;stroke:#C84B1F;stroke-miterlimit:10;}
	.st15{opacity:0.5;}
	.st16{fill:none;stroke:#BD0B0A;stroke-width:1.0073;stroke-miterlimit:10;}
	.st17{fill:#561103;}
	.st18{opacity:0.3;fill:#A6390B;}
	.st19{opacity:0.3;fill:none;stroke:#DB948E;stroke-width:1.0593;stroke-miterlimit:10;}
	.st20{opacity:0.3;fill:none;stroke:#DB948E;stroke-width:0.9079;stroke-miterlimit:10;}
	.st21{fill:none;stroke:#BF4A44;stroke-width:1.0086;stroke-miterlimit:10;}
	.st22{fill:#FFFFFF;}
	.st23{opacity:0.5;fill:none;stroke:#BD0B0A;stroke-miterlimit:10;}
	.st24{opacity:0.5;clip-path:url(#SVGID_00000133511714789327420660000013114241533797357953_);}
	.st25{opacity:0.5;clip-path:url(#SVGID_00000176741442985215705620000000125006710251557038_);}
	.st26{fill:none;stroke:#FF994E;stroke-width:1.0073;stroke-miterlimit:10;}
</style>
<g>
	<rect x="0.4" y="0" class="st3" width="318.6" height="50"/>
	<rect x="27.1" y="0" class="st9" width="33.7" height="50"/>
	<g>
		<defs>
			<rect id="SVGID_00000099636514678475097800000004479436607789922481_" x="27.1" y="0" width="33.7" height="50"/>
		</defs>
		<clipPath id="SVGID_00000080912318516115557850000004637040077434686343_">
			<use xlink:href="#SVGID_00000099636514678475097800000004479436607789922481_"  style="overflow:visible;"/>
		</clipPath>
		<g style="opacity:0.5;clip-path:url(#SVGID_00000080912318516115557850000004637040077434686343_);">
			<line class="st11" x1="10.9" y1="45.9" x2="77" y2="99.1"/>
			<line class="st11" x1="10.9" y1="34" x2="77" y2="87.3"/>
			<line class="st11" x1="10.9" y1="22.1" x2="77" y2="75.4"/>
			<line class="st11" x1="10.9" y1="10.2" x2="77" y2="63.5"/>
			<line class="st11" x1="10.9" y1="-1.6" x2="77" y2="51.6"/>
			<line class="st11" x1="10.9" y1="-13.5" x2="77" y2="39.8"/>
			<line class="st11" x1="10.9" y1="-25.4" x2="77" y2="27.9"/>
			<line class="st11" x1="10.9" y1="-37.3" x2="77" y2="16"/>
			<line class="st11" x1="10.9" y1="-49.1" x2="77" y2="4.1"/>
			<line class="st11" x1="77" y1="45.9" x2="10.9" y2="99.1"/>
			<line class="st11" x1="77" y1="34" x2="10.9" y2="87.3"/>
			<line class="st11" x1="77" y1="22.1" x2="10.9" y2="75.4"/>
			<line class="st11" x1="77" y1="10.2" x2="10.9" y2="63.5"/>
			<line class="st11" x1="77" y1="-1.6" x2="10.9" y2="51.6"/>
			<line class="st11" x1="77" y1="-13.5" x2="10.9" y2="39.8"/>
			<line class="st11" x1="77" y1="-25.4" x2="10.9" y2="27.9"/>
			<line class="st11" x1="77" y1="-37.3" x2="10.9" y2="16"/>
			<line class="st11" x1="77" y1="-49.1" x2="10.9" y2="4.1"/>
		</g>
	</g>
	<rect x="257" y="0" class="st9" width="33.7" height="50"/>
	<g>
		<defs>
			<rect id="SVGID_00000151506777860773005250000005827881772085352859_" x="257" y="0" width="33.7" height="50"/>
		</defs>
		<clipPath id="SVGID_00000139288257894487148940000001251559295154250416_">
			<use xlink:href="#SVGID_00000151506777860773005250000005827881772085352859_"  style="overflow:visible;"/>
		</clipPath>
		<g style="opacity:0.5;clip-path:url(#SVGID_00000139288257894487148940000001251559295154250416_);">
			<line class="st11" x1="240.8" y1="45.9" x2="306.9" y2="99.1"/>
			<line class="st11" x1="240.8" y1="34" x2="306.9" y2="87.3"/>
			<line class="st11" x1="240.8" y1="22.1" x2="306.9" y2="75.4"/>
			<line class="st11" x1="240.8" y1="10.2" x2="306.9" y2="63.5"/>
			<line class="st11" x1="240.8" y1="-1.6" x2="306.9" y2="51.6"/>
			<line class="st11" x1="240.8" y1="-13.5" x2="306.9" y2="39.8"/>
			<line class="st11" x1="240.8" y1="-25.4" x2="306.9" y2="27.9"/>
			<line class="st11" x1="240.8" y1="-37.3" x2="306.9" y2="16"/>
			<line class="st11" x1="240.8" y1="-49.1" x2="306.9" y2="4.1"/>
			<line class="st11" x1="306.9" y1="45.9" x2="240.8" y2="99.1"/>
			<line class="st11" x1="306.9" y1="34" x2="240.8" y2="87.3"/>
			<line class="st11" x1="306.9" y1="22.1" x2="240.8" y2="75.4"/>
			<line class="st11" x1="306.9" y1="10.2" x2="240.8" y2="63.5"/>
			<line class="st11" x1="306.9" y1="-1.6" x2="240.8" y2="51.6"/>
			<line class="st11" x1="306.9" y1="-13.5" x2="240.8" y2="39.8"/>
			<line class="st11" x1="306.9" y1="-25.4" x2="240.8" y2="27.9"/>
			<line class="st11" x1="306.9" y1="-37.3" x2="240.8" y2="16"/>
			<line class="st11" x1="306.9" y1="-49.1" x2="240.8" y2="4.1"/>
		</g>
	</g>
	<line class="st13" x1="67.7" y1="0" x2="67.7" y2="50"/>
	<line class="st13" x1="21.4" y1="0" x2="21.4" y2="50"/>
	<line class="st13" x1="250.9" y1="0" x2="250.9" y2="50"/>
	<line class="st13" x1="296.5" y1="0" x2="296.5" y2="50"/>
	<line class="st14" x1="0" y1="2.6" x2="319" y2="2.6"/>
	<line class="st14" x1="0" y1="47.1" x2="319" y2="47.1"/>
</g>
<g>
	<path class="st22" d="M134.3,14.3v20.1h-2.7v-8.8h-10.5v8.8h-2.7V14.3h2.7V23h10.5v-8.7H134.3z"/>
	<path class="st22" d="M139.2,18.7c0-0.4,0.2-0.8,0.5-1c0.3-0.3,0.7-0.4,1.1-0.4c0.4,0,0.7,0.1,1.1,0.4s0.5,0.6,0.5,1
		c0,0.4-0.2,0.8-0.5,1s-0.7,0.4-1.1,0.4c-0.4,0-0.7-0.1-1.1-0.4C139.4,19.5,139.2,19.1,139.2,18.7z M139.4,22.9h2.6v11.5h-2.6V22.9z
		"/>
	<path class="st22" d="M149.7,34.6c-0.8,0-1.6-0.1-2.4-0.4c-0.8-0.3-1.4-0.7-1.9-1.3l1.1-1.5c0.5,0.5,1,0.8,1.5,1s1,0.3,1.5,0.3
		c0.4,0,0.7,0,1-0.1c0.3-0.1,0.6-0.2,0.8-0.5c0.2-0.2,0.3-0.5,0.3-0.9c0-0.4-0.1-0.8-0.4-1c-0.3-0.2-0.6-0.4-1-0.6
		c-0.4-0.1-0.9-0.3-1.3-0.4c-0.9-0.3-1.7-0.8-2.2-1.3s-0.8-1.2-0.8-2c0-0.6,0.2-1.2,0.5-1.7c0.3-0.5,0.8-1,1.4-1.3
		c0.6-0.3,1.4-0.5,2.2-0.5c0.8,0,1.5,0.1,2.1,0.3s1.2,0.5,1.8,1l-1,1.6c-0.3-0.4-0.7-0.6-1.2-0.8c-0.5-0.2-0.9-0.3-1.2-0.3
		c-0.3,0-0.6,0.1-0.9,0.2c-0.3,0.1-0.5,0.2-0.7,0.4c-0.2,0.2-0.3,0.4-0.3,0.7c0,0.4,0.1,0.7,0.4,0.9c0.3,0.2,0.6,0.4,1,0.6
		c0.4,0.1,0.8,0.3,1.2,0.4c0.6,0.2,1.1,0.4,1.5,0.7c0.4,0.3,0.8,0.6,1.1,1c0.3,0.4,0.4,0.9,0.4,1.5c0,0.7-0.2,1.3-0.5,1.9
		c-0.3,0.6-0.8,1-1.5,1.4C151.5,34.4,150.7,34.6,149.7,34.6z"/>
	<path class="st22" d="M158.8,17.8h2.6v5.1h3.1v2h-3.1v9.4h-2.6v-9.4h-2.1v-2h2.1V17.8z"/>
	<path class="st22" d="M166.7,28.5c0-1.1,0.3-2.2,0.8-3.1s1.3-1.7,2.3-2.2c1-0.5,2.1-0.8,3.3-0.8s2.3,0.3,3.3,0.8
		c0.9,0.5,1.7,1.3,2.2,2.2s0.8,2,0.8,3.1c0,1.1-0.3,2.2-0.8,3.1c-0.5,0.9-1.3,1.7-2.2,2.2s-2,0.8-3.3,0.8c-1.2,0-2.3-0.3-3.3-0.8
		c-1-0.5-1.7-1.2-2.3-2.1C167,30.8,166.7,29.7,166.7,28.5z M169.3,28.5c0,0.7,0.2,1.4,0.5,2c0.3,0.6,0.8,1.1,1.3,1.4
		c0.6,0.4,1.2,0.5,1.9,0.5c0.7,0,1.4-0.2,1.9-0.5c0.6-0.4,1-0.8,1.3-1.4c0.3-0.6,0.5-1.3,0.5-2c0-0.7-0.2-1.4-0.5-2
		c-0.3-0.6-0.8-1.1-1.3-1.4c-0.6-0.4-1.2-0.5-1.9-0.5c-0.7,0-1.3,0.2-1.9,0.6c-0.6,0.4-1,0.9-1.3,1.5
		C169.5,27.1,169.3,27.8,169.3,28.5z"/>
	<path class="st22" d="M185.2,22.9l0.2,3.3l-0.1-0.5c0.3-0.7,0.7-1.3,1.3-1.8s1.1-0.9,1.8-1.1c0.6-0.3,1.2-0.4,1.6-0.4l-0.1,2.6
		c-0.9-0.1-1.7,0.1-2.3,0.5c-0.7,0.4-1.2,0.9-1.6,1.6c-0.4,0.6-0.6,1.3-0.6,2.1v5.2h-2.6V22.9H185.2z"/>
	<path class="st22" d="M197.1,34.4l-5.6-11.6h2.9l4.6,10.3L197.1,34.4z M194.3,39.9l7.6-17h2.4l-7.4,17H194.3z"/>
</g>
</svg>
