<?xml version="1.0" encoding="utf-8"?>
<!-- Generator: Adobe Illustrator 26.2.1, SVG Export Plug-In . SVG Version: 6.00 Build 0)  -->
<svg version="1.1" id="Layer_1" xmlns="http://www.w3.org/2000/svg" xmlns:xlink="http://www.w3.org/1999/xlink" x="0px" y="0px"
	 viewBox="0 0 319 50" style="enable-background:new 0 0 319 50;" xml:space="preserve">
<style type="text/css">
	.st0{fill:#C84B1F;}
	.st1{fill:#FF994E;}
	.st2{opacity:0.4;fill:none;stroke:#D22739;stroke-width:0.8783;stroke-miterlimit:10;}
	.st3{fill:#BF4A44;}
	.st4{opacity:0.3;fill:#DB948E;}
	.st5{fill:none;stroke:#561103;stroke-width:1.1047;stroke-miterlimit:10;}
	.st6{fill:#BD0B0A;}
	.st7{opacity:0.5;fill:#BD0B0A;}
	.st8{fill:none;stroke:#BD0B0A;stroke-width:0.6343;stroke-miterlimit:10;}
	.st9{fill:#A6390B;}
	.st10{opacity:0.5;clip-path:url(#SVGID_00000021119873746573192280000013731939447738069945_);}
	.st11{fill:none;stroke:#FF994E;stroke-miterlimit:10;}
	.st12{opacity:0.5;clip-path:url(#SVGID_00000052102107349136221490000016325193101126931873_);}
	.st13{fill:none;stroke:#A6390B;stroke-miterlimit:10;}
	.st14{opacity:0.3;fill:none;stroke:#C84B1F;stroke-miterlimit:10;}
	.st15{opacity:0.5;}
	.st16{fill:none;stroke:#BD0B0A;stroke-width:1.0073;stroke-miterlimit:10;}
	.st17{fill:#561103;}
	.st18{opacity:0.3;fill:#A6390B;}
	.st19{opacity:0.3;fill:none;stroke:#DB948E;stroke-width:1.0593;stroke-miterlimit:10;}
	.st20{opacity:0.3;fill:none;stroke:#DB948E;stroke-width:0.9079;stroke-miterlimit:10;}
	.st21{fill:none;stroke:#BF4A44;stroke-width:1.0086;stroke-miterlimit:10;}
	.st22{fill:#FFFFFF;}
	.st23{opacity:0.5;fill:none;stroke:#BD0B0A;stroke-miterlimit:10;}
	.st24{fill:none;stroke:#FF994E;stroke-width:1.0073;stroke-miterlimit:10;}
</style>
<rect x="0" y="0" class="st6" width="319" height="50"/>
<g class="st15">
	<line class="st24" x1="15.4" y1="0" x2="15.4" y2="50"/>
	<line class="st24" x1="40.1" y1="3.8" x2="19" y2="3.8"/>
	<line class="st24" x1="40.1" y1="10.8" x2="19" y2="10.8"/>
	<line class="st24" x1="40.1" y1="17.8" x2="19" y2="17.8"/>
	<line class="st24" x1="40.1" y1="24.8" x2="19" y2="24.8"/>
	<line class="st24" x1="40.1" y1="31.8" x2="19" y2="31.8"/>
	<line class="st24" x1="40.1" y1="38.8" x2="19" y2="38.8"/>
	<line class="st24" x1="40.1" y1="45.8" x2="19" y2="45.8"/>
	<line class="st24" x1="43.8" y1="0" x2="43.8" y2="50"/>
</g>
<g class="st15">
	<line class="st24" x1="276.7" y1="0" x2="276.7" y2="50"/>
	<line class="st24" x1="301.5" y1="3.8" x2="280.4" y2="3.8"/>
	<line class="st24" x1="301.5" y1="10.8" x2="280.4" y2="10.8"/>
	<line class="st24" x1="301.5" y1="17.8" x2="280.4" y2="17.8"/>
	<line class="st24" x1="301.5" y1="24.8" x2="280.4" y2="24.8"/>
	<line class="st24" x1="301.5" y1="31.8" x2="280.4" y2="31.8"/>
	<line class="st24" x1="301.5" y1="38.8" x2="280.4" y2="38.8"/>
	<line class="st24" x1="301.5" y1="45.8" x2="280.4" y2="45.8"/>
	<line class="st24" x1="305.1" y1="0" x2="305.1" y2="50"/>
</g>
<g>
	<path class="st22" d="M76.4,13.8v20.1h-2.7v-8.8H63.2v8.8h-2.7V13.8h2.7v8.7h10.5v-8.7H76.4z"/>
	<path class="st22" d="M80.5,28.1c0-1.1,0.3-2.2,0.8-3.1c0.5-0.9,1.3-1.7,2.3-2.2c1-0.5,2.1-0.8,3.3-0.8s2.3,0.3,3.3,0.8
		c0.9,0.5,1.7,1.3,2.2,2.2c0.5,0.9,0.8,2,0.8,3.1c0,1.1-0.3,2.2-0.8,3.1c-0.5,0.9-1.3,1.7-2.2,2.2c-0.9,0.5-2,0.8-3.3,0.8
		c-1.2,0-2.3-0.3-3.3-0.8c-1-0.5-1.7-1.2-2.3-2.1C80.8,30.4,80.5,29.3,80.5,28.1z M83.1,28.1c0,0.7,0.2,1.4,0.5,2
		c0.3,0.6,0.8,1.1,1.3,1.4c0.6,0.4,1.2,0.5,1.9,0.5c0.7,0,1.4-0.2,1.9-0.5s1-0.8,1.3-1.4c0.3-0.6,0.5-1.3,0.5-2c0-0.7-0.2-1.4-0.5-2
		c-0.3-0.6-0.8-1.1-1.3-1.4c-0.6-0.4-1.2-0.5-1.9-0.5c-0.7,0-1.3,0.2-1.9,0.6c-0.6,0.4-1,0.9-1.3,1.5C83.3,26.7,83.1,27.4,83.1,28.1
		z"/>
	<path class="st22" d="M99,22.4l0.2,2.6l-0.1-0.2c0.4-0.9,1-1.6,1.8-2.1c0.8-0.5,1.7-0.8,2.7-0.8c0.6,0,1.2,0.1,1.7,0.3
		s0.9,0.5,1.2,0.9c0.3,0.4,0.5,0.8,0.6,1.4l-0.1,0.1c0.4-0.9,1.1-1.5,1.8-2c0.8-0.5,1.6-0.7,2.5-0.7c1.1,0,2,0.3,2.7,1
		c0.7,0.6,1,1.5,1,2.5v8.5h-2.6v-7.6c0-0.6-0.2-1.1-0.4-1.5c-0.3-0.4-0.7-0.6-1.4-0.6c-0.7,0-1.3,0.2-1.8,0.6
		c-0.5,0.4-0.9,0.9-1.2,1.6c-0.3,0.6-0.4,1.3-0.5,2.1v5.4h-2.6v-7.6c0-0.6-0.2-1.1-0.5-1.5c-0.3-0.4-0.8-0.6-1.4-0.6
		c-0.7,0-1.3,0.2-1.8,0.6c-0.5,0.4-0.9,0.9-1.2,1.6c-0.3,0.6-0.4,1.4-0.4,2.1v5.4h-2.6V22.4H99z"/>
	<path class="st22" d="M124.9,34.2c-1.3,0-2.4-0.3-3.4-0.8c-0.9-0.5-1.7-1.2-2.2-2.2c-0.5-0.9-0.8-2-0.8-3.2c0-1.1,0.3-2.2,0.9-3.1
		c0.6-0.9,1.4-1.7,2.3-2.2s2-0.8,3.2-0.8c1.5,0,2.8,0.4,3.8,1.3c1,0.9,1.7,2.1,2.1,3.7l-9.5,3.3l-0.6-1.5l7.8-2.9l-0.5,0.4
		c-0.2-0.6-0.6-1.1-1.1-1.6c-0.5-0.4-1.2-0.7-2-0.7c-0.7,0-1.3,0.2-1.9,0.5c-0.5,0.3-1,0.8-1.3,1.4c-0.3,0.6-0.5,1.3-0.5,2
		c0,0.8,0.2,1.5,0.5,2.1c0.3,0.6,0.8,1.1,1.4,1.4s1.2,0.5,2,0.5c0.5,0,1-0.1,1.5-0.3c0.5-0.2,0.9-0.4,1.3-0.7l1.2,1.9
		c-0.6,0.4-1.2,0.7-1.9,0.9C126.3,34.1,125.6,34.2,124.9,34.2z"/>
	<path class="st22" d="M149.1,24.2c-0.5,0-1,0.1-1.5,0.3c-0.5,0.2-0.9,0.5-1.3,0.8c-0.4,0.4-0.7,0.8-0.9,1.2c-0.2,0.5-0.3,1-0.3,1.5
		c0,0.7,0.2,1.4,0.6,1.9c0.4,0.5,0.9,1,1.5,1.3c0.6,0.3,1.3,0.5,2.1,0.5c0.7,0,1.3-0.1,1.9-0.3s1-0.5,1.4-0.9
		c0.4-0.4,0.7-0.8,0.9-1.2l1.7,1.5c-0.5,0.9-1.3,1.7-2.3,2.3c-1,0.6-2.3,1-3.8,1c-1.3,0-2.4-0.3-3.4-0.8s-1.8-1.2-2.4-2.1
		c-0.6-0.9-0.9-1.9-0.9-3c0-0.9,0.2-1.7,0.6-2.4c0.4-0.7,0.9-1.4,1.6-1.9c0.6-0.5,1.4-1,2.2-1.3c0.8-0.3,1.7-0.5,2.5-0.5L149.1,24.2
		z M159.3,33.9c-0.2,0-0.4,0-0.8,0c-0.3,0-0.7,0-1.1,0s-0.8,0-1.3,0l-9.6-12.7c-0.2-0.3-0.4-0.6-0.6-1s-0.4-0.8-0.6-1.3
		s-0.2-1-0.2-1.5c0-0.8,0.2-1.5,0.6-2.2c0.4-0.7,0.9-1.3,1.7-1.7c0.7-0.4,1.6-0.7,2.7-0.7c1.1,0,2.1,0.2,2.9,0.7
		c0.9,0.4,1.6,0.9,2.1,1.5l-1.3,1.8c-0.6-0.5-1.1-0.9-1.7-1.2c-0.5-0.3-1.1-0.4-1.6-0.4c-0.8,0-1.4,0.2-1.9,0.7
		c-0.5,0.5-0.7,1.1-0.7,1.8c0,0.3,0.1,0.7,0.2,1c0.1,0.4,0.3,0.6,0.4,0.9c0.1,0.2,0.2,0.4,0.2,0.5L159.3,33.9z M156.1,22.1h2.5
		l-3.2,8.3l-1.9-1.2L156.1,22.1z"/>
	<path class="st22" d="M188.1,32.2c-0.3,0.2-0.7,0.5-1.2,0.7s-1.1,0.4-1.7,0.6c-0.6,0.2-1.2,0.3-1.8,0.4c-0.6,0.1-1.2,0.2-1.8,0.2
		c-1.6,0-3.1-0.2-4.4-0.8c-1.3-0.5-2.4-1.2-3.3-2.1c-0.9-0.9-1.6-1.9-2.1-3.1c-0.5-1.2-0.7-2.5-0.7-3.9c0-1.7,0.3-3.2,0.8-4.5
		c0.5-1.3,1.3-2.4,2.2-3.3c0.9-0.9,2-1.6,3.3-2.1c1.2-0.5,2.6-0.7,3.9-0.7c1.2,0,2.3,0.1,3.3,0.4s1.9,0.6,2.6,1.1l-0.9,2.5
		c-0.4-0.2-0.9-0.4-1.4-0.6s-1.1-0.4-1.7-0.5c-0.6-0.1-1.1-0.2-1.6-0.2c-1.2,0-2.3,0.2-3.2,0.5s-1.8,0.9-2.5,1.6s-1.2,1.5-1.6,2.4
		c-0.4,1-0.6,2-0.6,3.2c0,1.1,0.2,2.1,0.6,3c0.4,0.9,0.9,1.7,1.6,2.4s1.5,1.2,2.5,1.5s2,0.5,3.2,0.5c0.7,0,1.3-0.1,2-0.2
		c0.7-0.1,1.2-0.3,1.7-0.6v-3.9h-4v-2.6h6.7V32.2z"/>
	<path class="st22" d="M197.4,34.2c-1.1,0-2.1-0.2-2.9-0.7c-0.9-0.5-1.6-1.1-2.1-2c-0.5-0.9-0.8-2-0.8-3.3c0-1.3,0.3-2.4,0.8-3.3
		c0.5-0.9,1.3-1.6,2.2-2.1s1.9-0.8,3-0.8c1.1,0,2,0.2,2.7,0.7c0.8,0.5,1.3,1.1,1.7,1.7l-0.2,0.4l0.2-2.4h2.4v11.5h-2.6v-3l0.3,0.7
		c-0.1,0.2-0.3,0.4-0.5,0.7c-0.3,0.3-0.6,0.6-1,0.9c-0.4,0.3-0.9,0.5-1.4,0.7S198.1,34.2,197.4,34.2z M198.1,32.1
		c0.6,0,1.2-0.1,1.8-0.4c0.5-0.2,0.9-0.6,1.3-1s0.6-1,0.7-1.6v-2.2c-0.1-0.6-0.4-1-0.8-1.5c-0.4-0.4-0.8-0.7-1.3-1
		c-0.5-0.2-1.1-0.3-1.7-0.3c-0.7,0-1.3,0.2-1.9,0.5c-0.6,0.3-1,0.8-1.4,1.4c-0.3,0.6-0.5,1.3-0.5,2.1c0,0.7,0.2,1.4,0.5,2
		c0.4,0.6,0.8,1.1,1.4,1.4S197.4,32.1,198.1,32.1z"/>
	<path class="st22" d="M211.2,22.4l0.2,3.3l-0.1-0.5c0.3-0.7,0.7-1.3,1.3-1.8c0.6-0.5,1.1-0.9,1.8-1.1c0.6-0.3,1.2-0.4,1.6-0.4
		l-0.1,2.6c-0.9-0.1-1.7,0.1-2.3,0.5s-1.2,0.9-1.6,1.6c-0.4,0.6-0.6,1.3-0.6,2.1v5.2h-2.6V22.4H211.2z"/>
	<path class="st22" d="M223.5,34.2c-1.1,0-2-0.3-2.9-0.8c-0.9-0.5-1.5-1.2-2-2.2c-0.5-0.9-0.8-2-0.8-3.2c0-1.3,0.3-2.4,0.8-3.3
		c0.5-0.9,1.3-1.6,2.2-2.1s1.9-0.7,3.1-0.7c0.9,0,1.8,0.2,2.6,0.6c0.8,0.4,1.5,0.9,1.9,1.6l-0.1,0.9V12.4h2.6v21.5h-2.6v-2.9
		l0.3,0.7c-0.6,0.7-1.3,1.3-2.1,1.7C225.5,34,224.6,34.2,223.5,34.2z M224.3,32c0.7,0,1.3-0.1,1.8-0.4c0.5-0.3,1-0.6,1.3-1
		c0.4-0.4,0.6-0.9,0.8-1.5v-2.2c-0.1-0.6-0.4-1-0.8-1.5c-0.4-0.4-0.8-0.8-1.4-1c-0.5-0.2-1.1-0.3-1.8-0.3c-0.7,0-1.3,0.2-1.9,0.5
		c-0.6,0.3-1.1,0.8-1.4,1.4s-0.5,1.3-0.5,2.1c0,0.8,0.2,1.4,0.5,2s0.8,1.1,1.4,1.4C223,31.8,223.6,32,224.3,32z"/>
	<path class="st22" d="M240.6,34.2c-1.3,0-2.4-0.3-3.4-0.8c-0.9-0.5-1.7-1.2-2.2-2.2c-0.5-0.9-0.8-2-0.8-3.2c0-1.1,0.3-2.2,0.9-3.1
		c0.6-0.9,1.4-1.7,2.3-2.2c1-0.6,2-0.8,3.2-0.8c1.5,0,2.8,0.4,3.8,1.3s1.7,2.1,2.1,3.7l-9.5,3.3l-0.6-1.5l7.8-2.9l-0.5,0.4
		c-0.2-0.6-0.6-1.1-1.1-1.6c-0.5-0.4-1.2-0.7-2-0.7c-0.7,0-1.3,0.2-1.9,0.5c-0.5,0.3-1,0.8-1.3,1.4c-0.3,0.6-0.5,1.3-0.5,2
		c0,0.8,0.2,1.5,0.5,2.1c0.3,0.6,0.8,1.1,1.4,1.4c0.6,0.3,1.2,0.5,2,0.5c0.5,0,1-0.1,1.5-0.3c0.5-0.2,0.9-0.4,1.3-0.7l1.2,1.9
		c-0.6,0.4-1.2,0.7-1.9,0.9C242,34.1,241.3,34.2,240.6,34.2z"/>
	<path class="st22" d="M252.1,22.4l0.2,2.8l-0.1-0.4c0.4-0.9,0.9-1.5,1.8-2c0.8-0.5,1.8-0.8,2.9-0.8c1.1,0,2,0.3,2.7,1
		s1.1,1.5,1.1,2.5v8.5H258v-7.6c0-0.6-0.2-1.1-0.5-1.5s-0.9-0.6-1.6-0.6c-0.6,0-1.2,0.2-1.8,0.6c-0.5,0.4-1,0.9-1.3,1.5
		s-0.5,1.4-0.5,2.2v5.4h-2.6V22.4H252.1z"/>
</g>
</svg>
