<?xml version="1.0" encoding="utf-8"?>
<!-- Generator: Adobe Illustrator 26.2.1, SVG Export Plug-In . SVG Version: 6.00 Build 0)  -->
<svg version="1.1" id="Layer_1" xmlns="http://www.w3.org/2000/svg" xmlns:xlink="http://www.w3.org/1999/xlink" x="0px" y="0px"
	 viewBox="0 0 319 50" style="enable-background:new 0 0 319 50;" xml:space="preserve">
<style type="text/css">
	.st0{fill:#C84B1F;}
	.st1{fill:#FF994E;}
	.st2{fill:#FFFFFF;}
</style>
<g>
	<rect x="0.03" y="0.04" class="st0" width="318.88" height="50.1"/>
	<rect x="17.51" y="0.04" class="st1" width="19.97" height="50.1"/>
	<rect x="281.46" y="0.04" class="st1" width="19.97" height="50.1"/>
	<path class="st1" d="M259.16,42.13l-199.37,0c0-4.83-3.92-8.75-8.75-8.75l0-16.58c4.83,0,8.75-3.92,8.75-8.75l199.37,0
		c0,4.83,3.92,8.75,8.75,8.75v16.58C263.07,33.38,259.16,37.3,259.16,42.13z"/>
</g>
<g>
	<path class="st2" d="M84.71,17.24c-0.71-0.21-1.37-0.31-2-0.31c-0.95,0-1.7,0.21-2.25,0.64s-0.83,1.01-0.83,1.75
		c0,0.72,0.32,1.31,0.97,1.77c0.65,0.46,1.58,0.91,2.78,1.36c0.9,0.32,1.66,0.67,2.27,1.05c0.62,0.38,1.13,0.9,1.54,1.56
		c0.41,0.67,0.61,1.51,0.61,2.54c0,0.93-0.23,1.77-0.7,2.53c-0.47,0.75-1.13,1.35-1.99,1.78c-0.86,0.43-1.87,0.65-3.02,0.65
		c-1.08,0-2.11-0.17-3.11-0.52c-1-0.34-1.87-0.78-2.62-1.31l1.04-1.85c0.59,0.45,1.31,0.83,2.14,1.14c0.83,0.31,1.61,0.47,2.33,0.47
		c0.93,0,1.75-0.24,2.44-0.72c0.7-0.48,1.05-1.2,1.05-2.14c0-0.8-0.29-1.44-0.88-1.91s-1.41-0.92-2.47-1.34
		c-0.98-0.37-1.79-0.73-2.44-1.08c-0.65-0.35-1.21-0.84-1.67-1.46c-0.47-0.62-0.7-1.39-0.7-2.32c0-1.36,0.48-2.47,1.43-3.31
		c0.95-0.84,2.19-1.29,3.72-1.34c1.88,0,3.62,0.46,5.22,1.4l-0.89,1.81C86.08,17.72,85.42,17.45,84.71,17.24z"/>
	<path class="st2" d="M97.65,32.28c-0.62,0.21-1.25,0.31-1.89,0.31c-1.08,0-2.03-0.22-2.85-0.65c-0.83-0.43-1.47-1.05-1.93-1.84
		c-0.46-0.79-0.69-1.71-0.69-2.76c0-1.03,0.24-1.94,0.72-2.73c0.48-0.79,1.12-1.41,1.93-1.84c0.8-0.43,1.67-0.65,2.6-0.65
		c1.52,0,2.78,0.42,3.78,1.25l-1.13,1.47c-0.32-0.24-0.69-0.45-1.11-0.61c-0.42-0.17-0.87-0.25-1.35-0.25
		c-0.59,0-1.14,0.15-1.62,0.45c-0.49,0.3-0.88,0.7-1.16,1.22c-0.28,0.51-0.42,1.08-0.42,1.71c0,0.62,0.15,1.2,0.45,1.71
		c0.3,0.51,0.7,0.92,1.22,1.23c0.51,0.3,1.1,0.46,1.76,0.46c0.82,0,1.53-0.24,2.14-0.72l1.16,1.4
		C98.8,31.78,98.27,32.07,97.65,32.28z"/>
	<path class="st2" d="M102.38,17.91c0.27-0.24,0.59-0.36,0.94-0.36s0.66,0.12,0.93,0.36c0.27,0.24,0.4,0.54,0.4,0.89
		c0,0.35-0.13,0.65-0.4,0.89c-0.26,0.24-0.57,0.36-0.93,0.36s-0.67-0.12-0.94-0.36c-0.27-0.24-0.41-0.54-0.41-0.89
		C101.97,18.45,102.11,18.15,102.38,17.91z M104.38,22.39v9.97h-2.24v-9.97H104.38z"/>
	<path class="st2" d="M119.16,14.95v2.24h-7.99v5.54h7.01v2.24h-7.01v7.39h-2.34V14.95H119.16z"/>
	<path class="st2" d="M122.27,17.91c0.27-0.24,0.59-0.36,0.94-0.36s0.66,0.12,0.93,0.36c0.27,0.24,0.4,0.54,0.4,0.89
		c0,0.35-0.13,0.65-0.4,0.89c-0.26,0.24-0.57,0.36-0.93,0.36s-0.67-0.12-0.94-0.36c-0.27-0.24-0.41-0.54-0.41-0.89
		C121.86,18.45,121.99,18.15,122.27,17.91z M124.26,22.39v9.97h-2.24v-9.97H124.26z"/>
	<path class="st2" d="M147.3,32.35l-1.44-1.93c-0.51,0.66-1.19,1.18-2.03,1.58c-0.84,0.39-1.8,0.59-2.88,0.59
		c-1.09,0-2.07-0.23-2.95-0.67c-0.88-0.45-1.56-1.06-2.06-1.84c-0.5-0.78-0.75-1.66-0.75-2.64c0-0.82,0.2-1.58,0.61-2.27
		c0.41-0.7,0.96-1.3,1.66-1.79c0.7-0.5,1.46-0.85,2.27-1.06l-0.77-1.01c-0.82-1.2-1.23-2.28-1.23-3.23c0-0.69,0.17-1.34,0.52-1.95
		c0.35-0.61,0.84-1.1,1.49-1.47c0.65-0.37,1.41-0.55,2.27-0.55c0.88,0,1.71,0.18,2.47,0.53c0.76,0.35,1.4,0.8,1.91,1.35l-1.16,1.56
		c-1.09-0.98-2.05-1.47-2.86-1.47c-0.67,0-1.22,0.21-1.62,0.63s-0.61,0.93-0.61,1.54c0,0.58,0.26,1.27,0.79,2.07l4.62,6.14
		l1.66-4.33h2.17l-2.43,6.19l3.06,4.04H147.3z M143.27,30.03c0.57-0.31,1.02-0.73,1.34-1.24l-3.61-4.82
		c-0.58,0.03-1.13,0.2-1.65,0.51c-0.52,0.3-0.94,0.71-1.25,1.22s-0.47,1.06-0.47,1.65c0,0.91,0.35,1.67,1.05,2.26
		c0.7,0.59,1.55,0.89,2.56,0.89C142.02,30.5,142.7,30.34,143.27,30.03z"/>
	<path class="st2" d="M171.74,14.95v2.24h-7.99v5.54h7v2.24h-7v7.39h-2.33V14.95H171.74z"/>
	<path class="st2" d="M183.97,22.39v9.97h-2.24v-1.64c-0.35,0.47-0.87,0.89-1.54,1.29c-0.67,0.39-1.44,0.59-2.29,0.59
		c-0.95,0-1.8-0.21-2.56-0.61c-0.76-0.41-1.36-1.01-1.81-1.79c-0.44-0.79-0.66-1.72-0.66-2.82c0-1.09,0.23-2.04,0.69-2.85
		c0.46-0.81,1.08-1.44,1.85-1.88s1.64-0.66,2.59-0.66c0.85,0,1.59,0.18,2.21,0.55c0.63,0.37,1.13,0.85,1.52,1.44l0.17-1.59H183.97z
		 M180.61,30.06c0.58-0.46,0.96-1.08,1.12-1.87v-1.97c-0.19-0.71-0.59-1.28-1.2-1.72c-0.61-0.44-1.31-0.66-2.09-0.66
		c-0.59,0-1.14,0.14-1.65,0.43s-0.91,0.69-1.2,1.22c-0.3,0.52-0.45,1.11-0.45,1.77c0,0.64,0.15,1.23,0.46,1.76
		c0.3,0.53,0.71,0.95,1.23,1.26c0.51,0.31,1.08,0.47,1.69,0.47C179.32,30.74,180.02,30.51,180.61,30.06z"/>
	<path class="st2" d="M196.36,22.83c0.61,0.55,0.92,1.27,0.94,2.16v7.37h-2.26v-6.6c-0.03-0.56-0.2-1-0.51-1.32
		s-0.76-0.49-1.37-0.51c-0.88,0-1.61,0.35-2.19,1.06c-0.58,0.71-0.87,1.6-0.87,2.7v4.67h-2.24v-9.97h2.02l0.14,1.93
		c0.35-0.72,0.88-1.29,1.59-1.7c0.71-0.41,1.52-0.61,2.43-0.61C194.98,22,195.75,22.28,196.36,22.83z"/>
	<path class="st2" d="M204.4,18.01v4.41h2.72v1.78h-2.72v8.16h-2.26v-8.16h-1.83v-1.78h1.83v-4.41H204.4z"/>
	<path class="st2" d="M220.08,22.39v9.97h-2.24v-1.64c-0.35,0.47-0.87,0.89-1.54,1.29c-0.67,0.39-1.44,0.59-2.29,0.59
		c-0.95,0-1.8-0.21-2.56-0.61c-0.76-0.41-1.36-1.01-1.81-1.79c-0.44-0.79-0.66-1.72-0.66-2.82c0-1.09,0.23-2.04,0.69-2.85
		c0.46-0.81,1.08-1.44,1.85-1.88s1.64-0.66,2.59-0.66c0.85,0,1.59,0.18,2.21,0.55c0.63,0.37,1.13,0.85,1.52,1.44l0.17-1.59H220.08z
		 M216.72,30.06c0.58-0.46,0.96-1.08,1.12-1.87v-1.97c-0.19-0.71-0.59-1.28-1.2-1.72c-0.61-0.44-1.31-0.66-2.09-0.66
		c-0.59,0-1.14,0.14-1.65,0.43s-0.91,0.69-1.2,1.22c-0.3,0.52-0.45,1.11-0.45,1.77c0,0.64,0.15,1.23,0.46,1.76
		c0.3,0.53,0.71,0.95,1.23,1.26c0.51,0.31,1.08,0.47,1.69,0.47C215.43,30.74,216.13,30.51,216.72,30.06z"/>
	<path class="st2" d="M224.68,32.19c-0.67-0.26-1.21-0.63-1.62-1.13l0.96-1.3c0.4,0.38,0.82,0.68,1.26,0.89s0.88,0.31,1.31,0.31
		c0.53,0,0.96-0.1,1.3-0.31s0.51-0.53,0.51-0.96c0-0.34-0.1-0.61-0.31-0.82c-0.21-0.21-0.45-0.36-0.71-0.46
		c-0.26-0.1-0.71-0.24-1.34-0.43c-1.7-0.54-2.55-1.52-2.55-2.91c0-0.83,0.31-1.55,0.93-2.14c0.62-0.59,1.48-0.89,2.59-0.89
		c0.71,0,1.33,0.09,1.88,0.26c0.54,0.18,1.05,0.46,1.52,0.84l-0.89,1.37c-0.26-0.27-0.58-0.49-0.98-0.65
		c-0.39-0.16-0.77-0.25-1.12-0.26c-0.45,0-0.83,0.11-1.16,0.33c-0.32,0.22-0.48,0.51-0.48,0.88c0,0.3,0.1,0.56,0.31,0.76
		c0.21,0.2,0.42,0.35,0.65,0.43c0.22,0.09,0.67,0.24,1.32,0.45c0.82,0.27,1.46,0.63,1.91,1.06c0.46,0.43,0.69,1.02,0.69,1.76
		c0,0.96-0.34,1.76-1.01,2.38c-0.67,0.63-1.63,0.94-2.86,0.94C226.05,32.57,225.35,32.44,224.68,32.19z"/>
	<path class="st2" d="M243.28,22.39l-6.43,14.76h-2.21l2.29-5.13l-4.62-9.63h2.53l3.23,7.1l3.15-7.1H243.28z"/>
</g>
</svg>
