<?xml version="1.0" encoding="utf-8"?>
<!-- Generator: Adobe Illustrator 26.2.1, SVG Export Plug-In . SVG Version: 6.00 Build 0)  -->
<svg version="1.1" id="Layer_1" xmlns="http://www.w3.org/2000/svg" xmlns:xlink="http://www.w3.org/1999/xlink" x="0px" y="0px"
	 viewBox="0 0 319 50" style="enable-background:new 0 0 319 50;" xml:space="preserve">
<style type="text/css">
	.st0{fill:#C84B1F;}
	.st1{fill:#FF994E;}
	.st2{opacity:0.4;fill:none;stroke:#D22739;stroke-width:0.8783;stroke-miterlimit:10;}
	.st3{fill:#BF4A44;}
	.st4{opacity:0.3;fill:#DB948E;}
	.st5{fill:none;stroke:#561103;stroke-width:1.1047;stroke-miterlimit:10;}
	.st6{fill:#BD0B0A;}
	.st7{opacity:0.5;fill:#BD0B0A;}
	.st8{fill:none;stroke:#BD0B0A;stroke-width:0.6343;stroke-miterlimit:10;}
	.st9{fill:#A6390B;}
	.st10{opacity:0.5;clip-path:url(#SVGID_00000122715030876735201130000004883538430318863007_);}
	.st11{fill:none;stroke:#FF994E;stroke-miterlimit:10;}
	.st12{opacity:0.5;clip-path:url(#SVGID_00000044893468113220749170000015702559938546374280_);}
	.st13{fill:none;stroke:#A6390B;stroke-miterlimit:10;}
	.st14{opacity:0.3;fill:none;stroke:#C84B1F;stroke-miterlimit:10;}
	.st15{opacity:0.5;}
	.st16{fill:none;stroke:#BD0B0A;stroke-width:1.0073;stroke-miterlimit:10;}
	.st17{fill:#561103;}
	.st18{opacity:0.3;fill:#A6390B;}
	.st19{opacity:0.3;fill:none;stroke:#DB948E;stroke-width:1.0593;stroke-miterlimit:10;}
	.st20{opacity:0.3;fill:none;stroke:#DB948E;stroke-width:0.9079;stroke-miterlimit:10;}
	.st21{fill:none;stroke:#BF4A44;stroke-width:1.0086;stroke-miterlimit:10;}
	.st22{fill:#FFFFFF;}
	.st23{opacity:0.5;fill:none;stroke:#BD0B0A;stroke-miterlimit:10;}
	.st24{fill:none;stroke:#FF994E;stroke-width:1.0073;stroke-miterlimit:10;}
</style>
<g>
	<g>
		<g>
			<rect x="0" y="0" class="st0" width="319" height="50"/>
			<rect x="18.8" y="0" class="st1" width="5.6" height="50"/>
			<rect x="28.1" y="0" class="st1" width="5.6" height="50"/>
			<rect x="205.4" y="0" class="st1" width="5.6" height="50"/>
			<rect x="214.7" y="0" class="st1" width="5.6" height="50"/>
			<rect x="284.1" y="0" class="st1" width="5.6" height="50"/>
			<rect x="293.3" y="0" class="st1" width="5.6" height="50"/>
			<line class="st2" x1="0" y1="7.4" x2="319" y2="7.4"/>
			<line class="st2" x1="0" y1="43.8" x2="319" y2="43.8"/>
		</g>
		<path class="st1" d="M181.8,40.7l-124.3,0c-7.2,0-13.1-5.9-13.1-13.1v-4.5c0-7.2,5.9-13.1,13.1-13.1l124.3,0
			c7.2,0,13.1,5.9,13.1,13.1v4.5C194.9,34.8,189.1,40.7,181.8,40.7z"/>
	</g>
</g>
<g>
	<path class="st22" d="M88.5,19.2c-0.6-0.3-1.3-0.6-2.1-0.9c-0.8-0.2-1.5-0.4-2.2-0.4c-1,0-1.8,0.2-2.4,0.7
		c-0.6,0.5-0.9,1.1-0.9,1.9c0,0.6,0.2,1.1,0.6,1.5c0.4,0.4,0.9,0.8,1.5,1.1s1.3,0.6,2,0.8c0.6,0.2,1.1,0.5,1.7,0.7
		c0.6,0.3,1.1,0.6,1.5,1.1c0.5,0.4,0.8,0.9,1.1,1.5c0.3,0.6,0.4,1.4,0.4,2.2c0,1-0.2,1.9-0.7,2.7c-0.5,0.8-1.2,1.5-2.1,1.9
		s-2,0.7-3.3,0.7c-0.8,0-1.6-0.1-2.4-0.3c-0.8-0.2-1.5-0.4-2.1-0.7c-0.6-0.3-1.2-0.6-1.7-1l1.1-2c0.4,0.3,0.9,0.6,1.4,0.8
		c0.5,0.3,1.1,0.5,1.7,0.6c0.6,0.2,1.2,0.2,1.7,0.2c0.6,0,1.2-0.1,1.8-0.3c0.6-0.2,1-0.5,1.4-1s0.6-1,0.6-1.8c0-0.6-0.2-1.2-0.5-1.6
		c-0.3-0.4-0.8-0.8-1.3-1.1c-0.5-0.3-1.1-0.6-1.8-0.8c-0.6-0.2-1.2-0.5-1.8-0.7s-1.2-0.6-1.7-1c-0.5-0.4-0.9-0.9-1.2-1.4
		c-0.3-0.6-0.5-1.3-0.5-2.1c0-1,0.2-1.9,0.7-2.6c0.5-0.7,1.1-1.3,2-1.7c0.8-0.4,1.8-0.7,2.9-0.7c1.2,0,2.3,0.1,3.2,0.4
		c0.9,0.3,1.7,0.7,2.5,1.1L88.5,19.2z"/>
	<path class="st22" d="M102,33.6c-0.5,0.4-1.1,0.7-1.7,0.9c-0.7,0.2-1.4,0.3-2,0.3c-1.2,0-2.2-0.2-3.1-0.7c-0.9-0.5-1.6-1.1-2.1-2
		s-0.8-1.8-0.8-3c0-1.1,0.3-2.1,0.8-3c0.5-0.8,1.2-1.5,2.1-2c0.9-0.5,1.8-0.7,2.8-0.7c0.8,0,1.6,0.1,2.3,0.4c0.7,0.2,1.3,0.6,1.8,1
		l-1.2,1.6c-0.3-0.2-0.7-0.4-1.1-0.6c-0.5-0.2-1-0.3-1.5-0.3c-0.6,0-1.2,0.2-1.8,0.5c-0.5,0.3-0.9,0.8-1.2,1.3
		c-0.3,0.5-0.5,1.2-0.5,1.9c0,0.7,0.2,1.3,0.5,1.8s0.7,1,1.3,1.3c0.6,0.3,1.2,0.5,1.9,0.5c0.5,0,0.9-0.1,1.3-0.2
		c0.4-0.1,0.7-0.3,1.1-0.6L102,33.6z"/>
	<path class="st22" d="M105,20c0-0.4,0.2-0.7,0.5-1c0.3-0.3,0.6-0.4,1-0.4c0.4,0,0.7,0.1,1,0.4c0.3,0.3,0.4,0.6,0.4,1
		c0,0.4-0.1,0.7-0.4,1c-0.3,0.3-0.6,0.4-1,0.4c-0.4,0-0.7-0.1-1-0.4C105.1,20.7,105,20.4,105,20z M105.1,23.9h2.4v10.8h-2.4V23.9z"
		/>
	<path class="st22" d="M116.8,34.9c-1.2,0-2.3-0.2-3.2-0.7c-0.9-0.5-1.6-1.2-2.1-2c-0.5-0.9-0.7-1.8-0.7-3c0-1.1,0.3-2,0.8-2.9
		c0.5-0.9,1.3-1.6,2.2-2.1c0.9-0.5,1.9-0.8,3-0.8c1.4,0,2.6,0.4,3.5,1.2s1.6,2,1.9,3.4l-8.9,3.1l-0.6-1.4l7.3-2.7l-0.5,0.4
		c-0.2-0.6-0.6-1.1-1-1.5s-1.1-0.6-1.9-0.6c-0.7,0-1.2,0.2-1.8,0.5c-0.5,0.3-0.9,0.7-1.2,1.3c-0.3,0.5-0.4,1.2-0.4,1.9
		c0,0.7,0.2,1.4,0.5,2c0.3,0.6,0.7,1,1.3,1.3c0.5,0.3,1.2,0.5,1.9,0.5c0.5,0,0.9-0.1,1.4-0.3c0.4-0.2,0.9-0.4,1.3-0.7l1.1,1.8
		c-0.5,0.4-1.1,0.7-1.8,0.9C118.1,34.8,117.4,34.9,116.8,34.9z"/>
	<path class="st22" d="M127.5,23.9l0.2,2.6l-0.1-0.4c0.3-0.8,0.9-1.4,1.7-1.9c0.8-0.5,1.7-0.7,2.7-0.7c1,0,1.8,0.3,2.5,0.9
		c0.6,0.6,1,1.4,1,2.3v8H133v-7.1c0-0.6-0.2-1-0.5-1.4c-0.3-0.4-0.8-0.6-1.5-0.6c-0.6,0-1.2,0.2-1.7,0.5c-0.5,0.3-0.9,0.8-1.2,1.4
		c-0.3,0.6-0.4,1.3-0.4,2.1v5h-2.4V23.9H127.5z"/>
	<path class="st22" d="M148.4,33.6c-0.5,0.4-1.1,0.7-1.7,0.9c-0.7,0.2-1.4,0.3-2,0.3c-1.2,0-2.2-0.2-3.1-0.7c-0.9-0.5-1.6-1.1-2.1-2
		s-0.8-1.8-0.8-3c0-1.1,0.3-2.1,0.8-3c0.5-0.8,1.2-1.5,2.1-2c0.9-0.5,1.8-0.7,2.8-0.7c0.8,0,1.6,0.1,2.3,0.4c0.7,0.2,1.3,0.6,1.8,1
		l-1.2,1.6c-0.3-0.2-0.7-0.4-1.1-0.6c-0.5-0.2-1-0.3-1.5-0.3c-0.6,0-1.2,0.2-1.8,0.5c-0.5,0.3-0.9,0.8-1.2,1.3
		c-0.3,0.5-0.5,1.2-0.5,1.9c0,0.7,0.2,1.3,0.5,1.8s0.7,1,1.3,1.3c0.6,0.3,1.2,0.5,1.9,0.5c0.5,0,0.9-0.1,1.3-0.2
		c0.4-0.1,0.7-0.3,1.1-0.6L148.4,33.6z"/>
	<path class="st22" d="M156.5,34.9c-1.2,0-2.3-0.2-3.2-0.7c-0.9-0.5-1.6-1.2-2.1-2c-0.5-0.9-0.7-1.8-0.7-3c0-1.1,0.3-2,0.8-2.9
		c0.5-0.9,1.3-1.6,2.2-2.1c0.9-0.5,1.9-0.8,3-0.8c1.4,0,2.6,0.4,3.5,1.2s1.6,2,1.9,3.4l-8.9,3.1l-0.6-1.4l7.3-2.7l-0.5,0.4
		c-0.2-0.6-0.6-1.1-1-1.5s-1.1-0.6-1.9-0.6c-0.7,0-1.2,0.2-1.8,0.5c-0.5,0.3-0.9,0.7-1.2,1.3c-0.3,0.5-0.4,1.2-0.4,1.9
		c0,0.7,0.2,1.4,0.5,2c0.3,0.6,0.7,1,1.3,1.3c0.5,0.3,1.2,0.5,1.9,0.5c0.5,0,0.9-0.1,1.4-0.3c0.4-0.2,0.9-0.4,1.3-0.7l1.1,1.8
		c-0.5,0.4-1.1,0.7-1.8,0.9C157.8,34.8,157.2,34.9,156.5,34.9z"/>
</g>
</svg>
