<?xml version="1.0" encoding="utf-8"?>
<!-- Generator: Adobe Illustrator 26.2.1, SVG Export Plug-In . SVG Version: 6.00 Build 0)  -->
<svg version="1.1" id="Layer_1" xmlns="http://www.w3.org/2000/svg" xmlns:xlink="http://www.w3.org/1999/xlink" x="0px" y="0px"
	 viewBox="0 0 319 50" style="enable-background:new 0 0 319 50;" xml:space="preserve">
<style type="text/css">
	.st0{fill:#C84B1F;}
	.st1{fill:#FF994E;}
	.st2{opacity:0.4;fill:none;stroke:#D22739;stroke-width:0.8783;stroke-miterlimit:10;}
	.st3{fill:#BF4A44;}
	.st4{opacity:0.3;fill:#DB948E;}
	.st5{fill:none;stroke:#561103;stroke-width:1.1047;stroke-miterlimit:10;}
	.st6{fill:#BD0B0A;}
	.st7{opacity:0.5;fill:#BD0B0A;}
	.st8{fill:none;stroke:#BD0B0A;stroke-width:0.6343;stroke-miterlimit:10;}
	.st9{fill:#A6390B;}
	.st10{opacity:0.5;clip-path:url(#SVGID_00000138558062792176741630000005827352056733452953_);}
	.st11{fill:none;stroke:#FF994E;stroke-miterlimit:10;}
	.st12{opacity:0.5;clip-path:url(#SVGID_00000178172923463336963570000017808951320215266948_);}
	.st13{fill:none;stroke:#A6390B;stroke-miterlimit:10;}
	.st14{opacity:0.3;fill:none;stroke:#C84B1F;stroke-miterlimit:10;}
	.st15{opacity:0.5;}
	.st16{fill:none;stroke:#BD0B0A;stroke-width:1.0073;stroke-miterlimit:10;}
	.st17{fill:#561103;}
	.st18{opacity:0.3;fill:#A6390B;}
	.st19{opacity:0.3;fill:none;stroke:#DB948E;stroke-width:1.0593;stroke-miterlimit:10;}
	.st20{opacity:0.3;fill:none;stroke:#DB948E;stroke-width:0.9079;stroke-miterlimit:10;}
	.st21{fill:none;stroke:#BF4A44;stroke-width:1.0086;stroke-miterlimit:10;}
	.st22{fill:#FFFFFF;}
	.st23{opacity:0.5;fill:none;stroke:#BD0B0A;stroke-miterlimit:10;}
	.st24{fill:none;stroke:#FF994E;stroke-width:1.0073;stroke-miterlimit:10;}
</style>
<g>
	<g>
		<rect x="0" y="0" transform="matrix(-1 -2.723177e-07 2.723177e-07 -1 318.9998 49.9999)" class="st3" width="319" height="50"/>
		<rect x="287.5" y="0" transform="matrix(-1 -2.723177e-07 2.723177e-07 -1 594.397 50)" class="st4" width="19.5" height="50"/>
		<rect x="277.6" y="0" transform="matrix(-1 -2.723174e-07 2.723174e-07 -1 559.019 50)" class="st4" width="3.9" height="50"/>
		
			<rect x="154" y="0" transform="matrix(-1 -2.723177e-07 2.723177e-07 -1 311.8225 49.9999)" class="st4" width="3.9" height="50"/>
		
			<rect x="127.2" y="0" transform="matrix(-1 -2.723177e-07 2.723177e-07 -1 273.9447 49.9999)" class="st4" width="19.5" height="50"/>
		
			<rect x="38.5" y="0" transform="matrix(-1 -2.723172e-07 2.723172e-07 -1 80.9908 49.9998)" class="st4" width="3.9" height="50"/>
		
			<rect x="11.8" y="0" transform="matrix(-1 -2.723177e-07 2.723177e-07 -1 43.1131 49.9998)" class="st4" width="19.5" height="50"/>
		<line class="st5" x1="319" y1="42.6" x2="0" y2="42.6"/>
		<line class="st5" x1="319" y1="6.2" x2="0" y2="6.2"/>
	</g>
</g>
<g>
	<path class="st22" d="M170,34.3V13.5h0l10.5,15l-1.1-0.2L190,13.5h0v20.7h-2.7V19.7l0.2,1.4L180,31.7h-0.1L172.2,21l0.4-1.2v14.5
		H170z"/>
	<path class="st22" d="M194.1,28.4c0-1.1,0.3-2.2,0.8-3.1c0.5-0.9,1.3-1.7,2.3-2.2c1-0.5,2.1-0.8,3.3-0.8s2.3,0.3,3.3,0.8
		c0.9,0.5,1.7,1.3,2.2,2.2c0.5,0.9,0.8,2,0.8,3.1c0,1.1-0.3,2.2-0.8,3.1c-0.5,0.9-1.3,1.7-2.2,2.2s-2,0.8-3.3,0.8
		c-1.2,0-2.3-0.3-3.3-0.8c-1-0.5-1.7-1.2-2.3-2.1C194.4,30.7,194.1,29.6,194.1,28.4z M196.7,28.4c0,0.7,0.2,1.4,0.5,2
		c0.3,0.6,0.8,1.1,1.3,1.4c0.6,0.4,1.2,0.5,1.9,0.5c0.7,0,1.4-0.2,1.9-0.5c0.6-0.4,1-0.8,1.3-1.4c0.3-0.6,0.5-1.3,0.5-2
		c0-0.7-0.2-1.4-0.5-2c-0.3-0.6-0.8-1.1-1.3-1.4c-0.6-0.4-1.2-0.5-1.9-0.5c-0.7,0-1.3,0.2-1.9,0.6c-0.6,0.4-1,0.9-1.3,1.5
		S196.7,27.7,196.7,28.4z"/>
	<path class="st22" d="M215,34.5c-1.1,0-2-0.3-2.9-0.8c-0.9-0.5-1.5-1.2-2-2.2c-0.5-0.9-0.8-2-0.8-3.2c0-1.3,0.3-2.4,0.8-3.3
		c0.5-0.9,1.3-1.6,2.2-2.1s1.9-0.7,3.1-0.7c0.9,0,1.8,0.2,2.6,0.6c0.8,0.4,1.5,0.9,1.9,1.6l-0.1,0.9V12.8h2.6v21.5h-2.6v-2.9
		l0.3,0.7c-0.6,0.7-1.3,1.3-2.1,1.7C217,34.3,216,34.5,215,34.5z M215.8,32.4c0.7,0,1.3-0.1,1.8-0.4c0.5-0.3,1-0.6,1.3-1
		c0.4-0.4,0.6-0.9,0.8-1.5v-2.2c-0.1-0.6-0.4-1-0.8-1.5c-0.4-0.4-0.8-0.8-1.4-1c-0.5-0.2-1.1-0.3-1.8-0.3c-0.7,0-1.3,0.2-1.9,0.5
		c-0.6,0.3-1.1,0.8-1.4,1.4s-0.5,1.3-0.5,2.1c0,0.8,0.2,1.4,0.5,2s0.8,1.1,1.4,1.4C214.4,32.2,215.1,32.4,215.8,32.4z"/>
	<path class="st22" d="M232.1,34.5c-1.3,0-2.4-0.3-3.4-0.8c-0.9-0.5-1.7-1.2-2.2-2.2c-0.5-0.9-0.8-2-0.8-3.2c0-1.1,0.3-2.2,0.9-3.1
		c0.6-0.9,1.4-1.7,2.3-2.2c1-0.6,2-0.8,3.2-0.8c1.5,0,2.8,0.4,3.8,1.3s1.7,2.1,2.1,3.7l-9.5,3.3l-0.6-1.5l7.8-2.9l-0.5,0.4
		c-0.2-0.6-0.6-1.1-1.1-1.6c-0.5-0.4-1.2-0.7-2-0.7c-0.7,0-1.3,0.2-1.9,0.5c-0.5,0.3-1,0.8-1.3,1.4c-0.3,0.6-0.5,1.3-0.5,2
		c0,0.8,0.2,1.5,0.5,2.1c0.3,0.6,0.8,1.1,1.4,1.4c0.6,0.3,1.2,0.5,2,0.5c0.5,0,1-0.1,1.5-0.3c0.5-0.2,0.9-0.4,1.3-0.7l1.2,1.9
		c-0.6,0.4-1.2,0.7-1.9,0.9C233.5,34.4,232.8,34.5,232.1,34.5z"/>
	<path class="st22" d="M243.5,22.8l0.2,3.3l-0.1-0.5c0.3-0.7,0.7-1.3,1.3-1.8c0.6-0.5,1.1-0.9,1.8-1.1c0.6-0.3,1.2-0.4,1.6-0.4
		l-0.1,2.6c-0.9-0.1-1.7,0.1-2.3,0.5s-1.2,0.9-1.6,1.6c-0.4,0.6-0.6,1.3-0.6,2.1v5.2h-2.6V22.8H243.5z"/>
	<path class="st22" d="M254,22.8l0.2,2.8l-0.1-0.4c0.4-0.9,0.9-1.5,1.8-2c0.8-0.5,1.8-0.8,2.9-0.8c1.1,0,2,0.3,2.7,1
		s1.1,1.5,1.1,2.5v8.5h-2.6v-7.6c0-0.6-0.2-1.1-0.5-1.5s-0.9-0.6-1.6-0.6c-0.6,0-1.2,0.2-1.8,0.6c-0.5,0.4-1,0.9-1.3,1.5
		s-0.5,1.4-0.5,2.2v5.4h-2.6V22.8H254z"/>
</g>
</svg>
