<?xml version="1.0" encoding="utf-8"?>
<!-- Generator: Adobe Illustrator 26.2.1, SVG Export Plug-In . SVG Version: 6.00 Build 0)  -->
<svg version="1.1" id="Layer_1" xmlns="http://www.w3.org/2000/svg" xmlns:xlink="http://www.w3.org/1999/xlink" x="0px" y="0px"
	 viewBox="0 0 612.1 194.8" style="enable-background:new 0 0 612.1 194.8;" xml:space="preserve">
<style type="text/css">
	.st0{fill:#D02026;}
</style>
<path class="st0" d="M112,193.9c-7.2,2.1-12.7,0.3-17.2-5.5c-4.7-6-7.7-12.9-9.7-20.2c-1.9-6.8-3.5-13.8-5-20.7
	c-0.8-3.7-1.2-7.4-1.8-11.1c-0.6-4.2-1.3-8.4-1.9-12.6c0-0.2-0.1-0.4-0.1-0.6c-0.4-5-0.8-10-1.3-15c-1.2-12.1-1.3-24.3-1.2-36.5
	c0.1-10.7,3.2-20.4,9.4-29.1c0.2-0.2,0.3-0.5,0.7-1.3c-2.4,0.2-4.5,0.1-6.5,0.5c-3.3,0.5-6.6,1.3-9.8,2c-9,1.9-18.1,3.4-26.9,5.8
	c-6.8,1.8-13.7,4-19.6,8.3c-1.1,0.8-2,1.8-3.5,3.1c1.7,1,2.9,1.9,4.2,2.5c5.7,2.5,11.6,4.4,17.7,5.6c6.7,1.3,13.3,2.8,20,4.3
	c1.2,0.3,2.5,0.8,3.6,1.3c2.5,1,4.2,3.2,4,5.1c-0.2,2.7-2.6,6-5.1,6.2c-4.3,0.4-8.7,0.6-13,0.4c-3.8-0.2-7.8-0.5-11.4-1.5
	c-6.7-1.9-13.4-4.2-19.8-6.8c-3.8-1.5-7.4-3.8-10.7-6.2c-8-5.8-8.9-15.1-4.3-23.6c2.5-4.5,6.2-8,10.3-11
	c8.7-6.5,18.7-10.7,28.9-14.1c6.6-2.2,13.1-4.4,19.8-6.1c7.3-1.9,14.8-3.4,22.2-5c4.9-1.1,9.9-2,14.8-2.9c3.5-0.6,7-0.9,10.5-1.5
	c3.7-0.6,7.4-1.3,11.1-1.8c3.3-0.5,6.7-1,10-1.3c13.1-1.2,26.2-2.6,39.4-3.3c15.2-0.8,30.5-1,45.8-1.2c18.1-0.3,36.3,0.8,54.3,2.1
	c9.2,0.7,18.4,1.3,27.5,2.3c6.6,0.7,13.1,1.9,19.6,3.2c7.1,1.3,14.2,2.7,21.1,4.5c15.2,4,30.1,9.1,43.4,17.9
	c6.5,4.3,12.1,9.7,15.4,16.9c1.9,4.1,3.1,8.5,2.8,12.9c-0.6,8-3,15.4-8.1,21.9c-7.3,9.4-16.9,15.7-27.2,21.1
	c-12.1,6.4-24.9,11.1-38.1,14.6c-11.2,3-22.5,5.8-33.8,8.5c-5.1,1.2-10.3,1.8-15.5,2.6c-6.1,1-12.2,2.1-18.4,3
	c-3.7,0.6-7.5,1-11.2,1.3c-9.3,0.8-18.6,1.7-27.8,2.1c-11.1,0.5-22.2,0.6-33.3,0.6c-8.1,0-16.3,0-24.4-0.6
	c-7.9-0.6-15.7-1.8-23.6-2.9c-5.8-0.8-11.5-1.9-17.3-2.8c-2.8-0.4-4.3,0.7-4.2,3.5c0.2,9.1,0.4,18.2,0.8,27.3
	c0.3,7.5-0.1,15-1.6,22.4C115.2,186.7,113.6,190.4,112,193.9z M122.8,39.5c-0.9,8.3-1.8,16.2-2.5,24.2c-0.6,8-1,16-1.4,24
	c0,0.4-0.1,0.8-0.1,1.2c0,6.9,0.1,13.8,0.1,20.8c0,1.4,0.7,2.3,2,2.6c4.3,1.2,8.5,2.5,12.8,3.5c7.6,1.7,15.2,3.4,22.9,4.7
	c5.4,0.9,11,1.9,16.4,1.9c12.6,0,25.1,0.6,37.7-0.7c9.9-1,20-0.9,29.9-1.5c4.6-0.3,9.3-0.8,13.9-1.4c6.9-0.9,13.7-1.8,20.6-2.8
	c5.5-0.8,11-1.5,16.4-2.5c6.2-1.2,12.3-2.7,18.4-4.3c8.2-2.2,16.4-4.3,24.4-7c12.5-4.3,24.7-9.7,36-16.7c4.1-2.5,7.9-5.3,11.1-8.9
	c4.5-5.2,4.6-8.8,0.1-13.5c-2.2-2.2-4.8-4.2-7.5-5.7c-10.6-5.6-22.1-8.3-33.7-11.1c-5.7-1.4-11.4-2.4-17.1-3.5
	c-3.3-0.7-6.5-1.5-9.8-2c-4.3-0.6-8.6-1.1-13-1.5c-7.6-0.7-15.2-1.4-22.8-1.7c-14.3-0.7-28.7-1-43.1-1.6c-8.9-0.4-17.8-1.6-26.7-1.7
	c-15.3-0.3-30.5-0.2-45.8,0c-4.9,0.1-9.9,0.7-14.8,1.3c-4.3,0.5-8.6,1.3-12.9,2.1C130.7,38.1,126.8,38.8,122.8,39.5z"/>
<path class="st0" d="M300.3,165.4c-4.5,2.5-7.5,6.1-10.5,9.6c-3.7,4.5-7.1,9.3-12,12.7c-1.9,1.3-3.8,2.5-6,3.1
	c-4.2,1.2-7.9-0.1-10.6-3.6c-3.4-4.5-6.6-9.1-9.7-13.8c-4.2-6.4-7.3-10.1-15.5-13.2c-0.8-2.2,0.5-3.9,1.5-5.6
	c2.7-4.4,10.7-5.8,14.4-4.9c7.2,1.6,12.2,6.2,16.5,11.9c3,3.9,5.9,7.9,9.1,12.3c2.5-2.6,4.7-4.9,6.9-7.2c3.4-3.6,6.7-7.3,10-11
	c2.7-3,6-4.9,9.7-6c3.5-1.1,6.6,0.2,9.5,2.1c5.6,3.7,9.3,9.1,13.5,14.1c3.3,4,6.6,8,11.6,9.8c2.3-0.6,3.1-2.4,3.8-4.3
	c2.1-5.7,3.7-11.5,3.2-17.7c-0.1-1.7,0-3.3,0-4.9c3.3-1.9,6.3-2.5,9.5-0.8c2.1,1.1,3.3,2.7,3.4,5.1c0.2,3.3-0.5,6.5-1.8,9.5
	c-2.9,6.9-7,13.1-11.8,18.7c-2.4,2.8-5.1,5.5-8,7.9c-5.4,4.5-10.7,4.3-17,0.9c-4.4-2.4-7.1-6.5-9.9-10.4
	C307.1,175.1,303.8,170.4,300.3,165.4z"/>
<path class="st0" d="M223.3,158.8c-0.7,3.7-0.3,7.1,0.3,10.5c1.2,7.7,1.2,11.3-8,16.5c-4.5,2.6-9.4,4-14.4,5.2
	c-5.2,1.2-10.5,1.9-15.8,1.7c-8.2-0.3-16.4-1.3-23.8-5.3c-3.8-2.1-7.3-4.7-7.7-9.4c-0.2-2.3,0.3-4.7,0.6-7c0.5-3.9,1.1-7.8,1.5-11.7
	c0.1-1.4,0.5-2.5,1.6-3.3c5.6-4,11.7-6.7,18.5-8.2c7.9-1.7,15.8-1.4,23.6-0.7c8.1,0.7,15.8,3.5,21.8,9.5
	C222.1,157.4,222.6,158.1,223.3,158.8z M212.6,170.2c-2.3-0.4-4-0.7-5.6-1c-7.4-1.3-14.7-3-22.4-2.7c-2.7,0.1-5.4-0.1-8,0.1
	c-2.8,0.2-5.7,0.7-8.5,1.3c-1,0.2-2,1.1-2.9,1.6c0.4,2.3,1.3,3.7,3.2,4.3c2.6,0.8,5.3,1.8,7.9,2.1c7.8,0.8,15.6,0.8,23.4,0.1
	c3.9-0.3,7.5-1.6,10.8-3.7C211.3,171.8,211.7,171.2,212.6,170.2z"/>
<path class="st0" d="M441,97.6c3.4-1.5,5.9-0.2,8.3,0.7c6.6,2.6,11.2,7.6,15,13.4c0.4,0.7,0.6,1.7,0.5,2.6
	c-0.2,3.9-0.5,7.9-0.8,11.8c0,0.6-0.2,1.2-0.2,1.8c-0.4,7.5-0.8,15-1.3,22.5c-0.6,7.5-1.3,15-2,22.4c0,0.1,0,0.2,0,0.3
	c-0.6,5.4,0.1,6.1,5.4,6c0.6,0,1.2,0,1.8,0c4.6,0.1,6.7,2.9,5.5,7.9c-5.8,2.2-11.2,6.2-18.1,6.1c-5.4,0-9.4-2.5-12.1-7.2
	c-3-5.1-3.8-10.8-4.1-16.5c-0.2-5.2,0.2-10.5,0.3-15.7c0.2-7.4,0.4-14.8-0.2-22.2c-0.7-8-0.5-16-0.2-24
	C438.8,104.2,440.2,100.8,441,97.6z"/>
<path class="st0" d="M483.6,97c4.6-0.1,8.3,1.4,11.7,3.5c4.4,2.7,7.6,6.7,10.5,10.8c0.8,1.2,1,3,0.9,4.5c-0.1,3.3-0.5,6.7-0.8,10
	c-0.7,8.2-1.4,16.3-2.1,24.5c0,0.3-0.1,0.6-0.1,0.9c-0.4,7.8-0.9,15.6-1.3,23.4c-0.1,1.3,0.2,2.7,0.3,4.4c2.1,0.1,3.9,0.3,5.6,0.2
	c5-0.3,7.8,2.3,6,8.4c-4.3,1.7-8.9,3.8-13.7,5.3c-6.3,2-13-1-16.1-7c-2.4-4.6-3.8-9.5-3.8-14.8c0-13.7,0.1-27.3,0-41
	c-0.1-5.2-1-10.5-0.8-15.7c0.2-4.9,1.4-9.7,2.3-14.6C482.4,98.9,483,98.1,483.6,97z"/>
<path class="st0" d="M429.7,173.6c2.6,4.4,1.5,8.9-2.5,11.5c-4.8,3.2-10.1,5-15.7,5.8c-5.7,0.9-11.6,1.7-17.3,1.8
	c-5.9,0.1-11.9-0.4-17.4-2.9c-5.2-2.4-8.5-6.4-9.6-12c-0.6-2.9-0.8-5.8-1.1-8.7c-0.7-6.1,3.1-9.2,7.7-11.9
	c6.7-3.9,14.1-6.2,21.5-8.1c6.1-1.6,12.2-2.4,18.5-2.2c4.7,0.2,8.5,2.1,11.9,5.2c3.5,3.1,3.1,8.5,0.5,11.9
	c-3.3,4.3-7.7,6.9-13.1,8.1c-6.8,1.5-13.6,3.2-20.4,4.8c-0.2,0.1-0.4,0.3-1.1,0.8c6.9,0.7,13.3,1,19.7-0.2
	C417.5,176.3,423.7,174.9,429.7,173.6z M409.3,159.8c-0.1-0.3-0.1-0.6-0.2-1c-3.5,0-7.1-0.3-10.5,0.1c-4.6,0.6-8.9,2.2-12.2,5.6
	c-0.8,0.8-1.3,1.9-2,2.9c0.2,0.2,0.4,0.4,0.6,0.6C393.7,167.2,402,165,409.3,159.8z"/>
<path class="st0" d="M602.3,174.1c-1.1-0.3-2.1-0.8-3.2-0.8c-9.1-0.4-18.2-0.6-27.3-1.2c-3.8-0.3-7.6-1-11.2-2.2
	c-4.5-1.5-5.5-5-2.8-9c1.6-2.3,3.7-4.5,6.1-5.9c5.8-3.4,12.1-5.7,18.8-7.1c4.7-0.9,9.3-1.2,13.9-0.7c4.6,0.5,9.2,2.1,13.2,3
	c2.7,4.2,0.6,8.5-4.5,11.3c-9.3-4.7-19.4-5.1-29.6-2.2c-3.8,1.1-7.7,1.9-11.2,4c4.7,0.5,9.4,0.8,14.1-0.2c8.4-1.7,16.8-3,25.2-0.6
	c1.6,0.4,3.2,1,4.6,1.9c3.5,2.2,4.6,6.4,3.2,10.8c-1.7,5.4-5.2,9.3-10.3,11.6c-4.5,2.1-9.2,3.5-14.1,4.3c-7.2,1.3-14.3,1.5-21.6,0.9
	c-2.9-0.2-5.8-1-8.1-3.2c-1.8-1.7-2.4-3.8-2.8-6.1c-0.3-1.9,0.8-3.3,2.7-3.5c1.1-0.2,2.2-0.1,3.3-0.1c9.2-0.4,18.4-0.6,27.6-1.2
	C593.1,177.6,597.8,176.7,602.3,174.1z"/>
<path class="st0" d="M541.3,101c1.8-2,3.5-4,5.3-6c-2.2-2.4-4.9-2.3-7.2-3.2c-1.9-0.7-4-1.1-5.8-2.1c-4.8-2.5-5.6-5.9-2.9-10.6
	c2.9-4.9,8.7-6.9,14.4-6.2c4.2,0.5,7.8,2,10.7,5.2c2,2.1,3.1,4.7,3.5,7.4c0.2,1.7-0.5,3.7-0.9,5.5c-0.9,3.5-2.5,6.8-5.1,9.2
	c-1.9,1.6-4.3,2.9-6.6,3.7C544.3,104.5,542.7,102.7,541.3,101z"/>
</svg>
