<?xml version="1.0" encoding="utf-8"?>
<!-- Generator: Adobe Illustrator 26.2.1, SVG Export Plug-In . SVG Version: 6.00 Build 0)  -->
<svg version="1.1" id="Layer_1" xmlns="http://www.w3.org/2000/svg" xmlns:xlink="http://www.w3.org/1999/xlink" x="0px" y="0px"
	 viewBox="0 0 28 28" style="enable-background:new 0 0 28 28;" xml:space="preserve">
<style type="text/css">
	.st0{fill:#971B1E;}
</style>
<g>
	<path class="st0" d="M27.6,25.8l-5.2-5.3c1.7-2.2,2.8-4.9,2.8-7.9c0-7-5.6-12.6-12.6-12.6C5.6,0,0,5.7,0,12.6
		c0,7,5.6,12.6,12.6,12.6c3,0,5.8-1.1,8-2.9l5.2,5.3c0.2,0.2,0.6,0.4,0.9,0.4c0.3,0,0.7-0.1,0.9-0.4C28.1,27.1,28.1,26.3,27.6,25.8z
		 M2.6,12.6c0-5.5,4.5-10.1,10-10.1c5.5,0,10,4.5,10,10.1c0,5.5-4.5,10.1-10,10.1C7.1,22.7,2.6,18.2,2.6,12.6z"/>
</g>
</svg>
