<?xml version="1.0" encoding="utf-8"?>
<!-- Generator: Adobe Illustrator 26.2.1, SVG Export Plug-In . SVG Version: 6.00 Build 0)  -->
<svg version="1.1" id="Layer_1" xmlns="http://www.w3.org/2000/svg" xmlns:xlink="http://www.w3.org/1999/xlink" x="0px" y="0px"
	 viewBox="0 0 87.4 87.4" style="enable-background:new 0 0 87.4 87.4;" xml:space="preserve">
<style type="text/css">
	.st0{fill:#971B1E;}
</style>
<g>
	<path class="st0" d="M86.2,80.5L69.8,64.1c5.5-6.8,8.7-15.4,8.7-24.7C78.5,17.7,60.9,0,39.3,0C17.6,0,0,17.7,0,39.4
		c0,21.7,17.6,39.4,39.3,39.4c9.5,0,18.1-3.4,24.9-9l16.3,16.4c0.8,0.8,1.8,1.2,2.8,1.2c1,0,2-0.4,2.8-1.2
		C87.8,84.6,87.8,82.1,86.2,80.5z M8,39.4C8,22.1,22,8,39.3,8c17.2,0,31.3,14.1,31.3,31.4c0,17.3-14,31.4-31.3,31.4
		C22,70.8,8,56.7,8,39.4z"/>
</g>
</svg>
